<svg xmlns="http://www.w3.org/2000/svg" viewBox="0 0 88 88"><defs><style>.cls-1{fill:#faefc0;opacity:0.1;}</style></defs><title>abrir documento</title><g id="Camada_2" data-name="Camada 2"><g id="elements"><path class="cls-1" d="M88,88H8L0,80V0H80l8,8ZM88,8,80,0H0V80l8,8H88ZM75.67,46.94H64.28v-5.1a3.18,3.18,0,0,0-2.9-3.15v8.25H36.56A3.43,3.43,0,0,0,33.77,49L23.63,69.51H21.49A1.55,1.55,0,0,1,19.94,68V36.75a1.55,1.55,0,0,1,1.55-1.55h2.1V32.3H20.45A3.41,3.41,0,0,0,17,35.71V69a3.41,3.41,0,0,0,3.41,3.41H63.32a4.23,4.23,0,0,0,3.15-2.07L77.16,50.11C78.14,48.29,77,47,75.67,46.94ZM26.11,60.27l1.8-3.64V18.38a.45.45,0,0,1,.45-.45h20.7a.58.58,0,0,1,.58.58v6.22a1.18,1.18,0,0,0,1.18,1.17h5.55a.58.58,0,0,1,.58.58V45.13H59.3V24.74a1.29,1.29,0,0,0-.34-.87L51.71,16a1.28,1.28,0,0,0-.94-.41H28.36a2.8,2.8,0,0,0-2.8,2.8s-.09,30.61,0,40.81C25.57,60.23,26.11,60.27,26.11,60.27ZM52,23.57v-3.8l3.49,3.8H52Zm2.72,6.19a1.45,1.45,0,0,1-1.45,1.45H31.6a1.45,1.45,0,0,1,0-2.89H53.27A1.45,1.45,0,0,1,54.71,29.76Zm-1.45,9.87H31.6a1.45,1.45,0,1,1,0-2.89H53.27a1.45,1.45,0,1,1,0,2.89ZM31.6,45.21h3.7a4.33,4.33,0,0,0-3.18,2.89H31.6a1.45,1.45,0,1,1,0-2.89Z"/></g></g></svg>