<svg id="Layer_1" data-name="Layer 1" xmlns="http://www.w3.org/2000/svg" viewBox="0 0 136 136"><defs><style>.cls-1{fill:#faefc0;opacity:0.1;}.cls-2,.cls-3,.cls-4,.cls-5{fill:none;stroke:#faefc0;}.cls-2,.cls-3{stroke-miterlimit:10;}.cls-2{stroke-width:0.75px;}.cls-3,.cls-4{stroke-width:3px;}.cls-4,.cls-5{stroke-linecap:round;stroke-linejoin:round;}.cls-5{stroke-width:2.5px;}</style></defs><polygon class="cls-1" points="136 136 16 136 0 120 0 0 120 0 136 16 136 136"/><polygon class="cls-2" points="136 136 16 136 0 120 0 0 120 0 136 16 136 136"/><path class="cls-3" d="M66.87,48.2V13.82a3.62,3.62,0,0,0-3.61-3.62h-47a3.62,3.62,0,0,0-3.62,3.62V48.2"/><polyline class="cls-3" points="59.64 48.2 59.64 17.44 52.4 17.44 46.97 17.44 19.83 17.44 19.83 48.2"/><path class="cls-3" d="M30.69,48.2H9V50a7.24,7.24,0,0,0,7.24,7.24H63.26A7.24,7.24,0,0,0,70.49,50V48.2H48.78V50H30.69Z"/><polyline class="cls-3" points="92.64 57.72 100.02 65.1 107.41 57.72"/><path class="cls-3" d="M100,65.1V25.73a9.83,9.83,0,0,0-9.84-9.84h0"/><polyline class="cls-3" points="46.5 75.56 39.12 68.18 31.73 75.56"/><path class="cls-3" d="M39.12,68.18v39.37A9.84,9.84,0,0,0,49,117.4h2.46"/><rect class="cls-4" x="76.03" y="71.38" width="47.76" height="47.76"/><circle class="cls-4" cx="79.93" cy="123.14" r="3.59"/><circle class="cls-4" cx="120.41" cy="123.14" r="3.59"/><line class="cls-4" x1="82.8" y1="88.48" x2="117.25" y2="88.48"/><line class="cls-4" x1="82.8" y1="96.17" x2="117.25" y2="96.17"/><line class="cls-4" x1="82.8" y1="103.86" x2="117.25" y2="103.86"/><line class="cls-4" x1="82.8" y1="111.55" x2="117.25" y2="111.55"/><polyline class="cls-5" points="75.03 78 72 78 72 73.5 75.03 73.5"/><polyline class="cls-5" points="124.47 73.5 127.5 73.5 127.5 78 124.47 78"/><line class="cls-5" x1="78.5" y1="71.5" x2="78.5" y2="71.5"/><line class="cls-5" x1="94.5" y1="76.5" x2="109.5" y2="76.5"/><line class="cls-5" x1="125.5" y1="71.5" x2="109.5" y2="76.5"/><line class="cls-5" x1="77.5" y1="71.5" x2="94.5" y2="76.5"/></svg>