<svg xmlns="http://www.w3.org/2000/svg" viewBox="0 0 80 80">
  <defs>
    <style>
      .cls-1 {
        fill: #faefc0;
      }
    </style>
  </defs>
  <title>Ativo 5</title>
  <g id="Camada_2" data-name="Camada 2">
    <g id="Camada_1-2" data-name="Camada 1">
      <path id="Account_Icon" data-name="Account Icon" class="cls-1" d="M40,0A40,40,0,1,0,80,40,40,40,0,0,0,40,0ZM63.52,68.28a44.32,44.32,0,0,0-10.85-2.76C48,64.21,49.18,58,49.18,54.26c2.38-.36,2.21-4.46,2.42-6.23a17.11,17.11,0,0,1,.54-3.38c1,.27,2,.15,2.36-1a18.83,18.83,0,0,0,.42-2.82,19,19,0,0,1,.73-3c1.18-3.42-1.35-3-1.35-3,2.31-5.36,1-14.08,1-14.08-2.08-9.07-14.58-9.6-14.58-9.6-3.66.18-4.17,1.35-4.17,1.35a2.26,2.26,0,0,0-1.3,0c-3.77.88-7.26,4.6-7.26,4.6C23.33,20,25.13,28.58,25.13,28.58c0,.47.85,5.83.85,5.83-2.2.12-1.24,2.89-1.24,2.89a42.3,42.3,0,0,1,1.63,6.13A2.48,2.48,0,0,0,29,45.37s.4,2.95.43,3.18c.25,1.81-.07,3.73,1.28,5.14.12.13,1,.76,1,.87,0,3.05.56,9.54-2.93,10.37a75.74,75.74,0,0,0-11.9,3.64,36.8,36.8,0,1,1,46.68-.29Z"/>
    </g>
  </g>
</svg>
