<svg xmlns="http://www.w3.org/2000/svg" viewBox="0 0 66 80.5">
  <defs>
    <style>
      .cls-1 {
        fill: #faefc0;
      }
    </style>
  </defs>
  <title>Ativo 6</title>
  <g id="Camada_2" data-name="Camada 2">
    <g id="Camada_1-2" data-name="Camada 1">
      <path class="cls-1" d="M21.94,80.5A21.28,21.28,0,0,1,19,79.36a7.38,7.38,0,0,1-3.79-6,11.58,11.58,0,0,1,0-1.22q0-16.27,0-32.53c0-.25,0-.5,0-.68H21v.84Q21,56,21,72.26a2.1,2.1,0,0,0,1,2.13,3,3,0,0,0,1.28.3c1.5,0,3,0,4.5,0h30c1.73,0,2.52-.78,2.52-2.5q0-25.52,0-51c0-1-.13-1.89-1.09-2.35a3.72,3.72,0,0,0-1.55-.29c-5.87,0-11.74,0-17.62,0h-.74l-.85-5.78H57.87a7.87,7.87,0,0,1,6.77,3.4,7.43,7.43,0,0,1,1.31,3.58,10.63,10.63,0,0,1,0,1.16q0,25.75,0,51.5A7.86,7.86,0,0,1,62.81,79a8.67,8.67,0,0,1-3.15,1.39l-.43.13ZM16.67,0a2.5,2.5,0,0,1-.37.11A18.91,18.91,0,0,0,8.66,2.76,18,18,0,0,0,1.31,11.5a17.8,17.8,0,0,0-1,10.22A17.75,17.75,0,0,0,6.74,32.4a17.72,17.72,0,0,0,13,4,17.74,17.74,0,0,0,11.14-5,18.23,18.23,0,0,0,4.83-18.58A17.78,17.78,0,0,0,31.75,6,18,18,0,0,0,21.83.38L19.88,0ZM3.87,18.26A14.39,14.39,0,1,1,18.25,32.65,14.45,14.45,0,0,1,3.87,18.26ZM51,39.74h.64a2,2,0,0,0,1.78-1.36,1.81,1.81,0,0,0-.78-2.07,3.22,3.22,0,0,0-1.51-.38q-10.06,0-20.12,0a3.54,3.54,0,0,0-1,.1,1.8,1.8,0,0,0-1.31,1.29,1.89,1.89,0,0,0,1.94,2.44c3.45,0,6.9,0,10.35,0ZM44.62,51.53c2.25,0,4.5,0,6.75,0a2,2,0,0,0,2.1-1.62,1.89,1.89,0,0,0-2.08-2.22H30.83c-.15,0-.3,0-.45,0a1.88,1.88,0,0,0-1.67,1.74,2,2,0,0,0,2.16,2.09H44.62Zm1.54,12.19h5.46a1.83,1.83,0,0,0,1.74-1.21,1.79,1.79,0,0,0-.41-2,2.21,2.21,0,0,0-1.76-.6H31a5.39,5.39,0,0,0-.71,0,1.93,1.93,0,0,0-1.6,1.68,1.9,1.9,0,0,0,2.09,2.11c3.43,0,6.85,0,10.28,0Zm-26-48.33c0-2.19,0-4.37,0-6.56a1.94,1.94,0,0,0-1.91-2,1.91,1.91,0,0,0-2,2q0,4.69,0,9.38a1.88,1.88,0,0,0,1.9,2c3.66,0,7.33,0,11,0a2.44,2.44,0,0,0,1.47-.74,1.62,1.62,0,0,0,.22-2,1.88,1.88,0,0,0-1.75-1.1h-9C20.2,15.94,20.2,15.67,20.2,15.39Z"/>
    </g>
  </g>
</svg>
