<svg xmlns="http://www.w3.org/2000/svg" viewBox="0 0 80 80">
  <defs>
    <style>
      .cls-1 {
        fill: #faefc0;
      }
    </style>
  </defs>
  <title>Ativo 4</title>
  <g id="Camada_2" data-name="Camada 2">
    <g id="Camada_1-2" data-name="Camada 1">
      <path id="Settings_Icon_-_Active" data-name="Settings Icon - Active" class="cls-1" d="M80,41.83V38.17l-7.89-1.32a32,32,0,0,0-.9-4.92l7-4L77,24.5,69,26a32.22,32.22,0,0,0-2.48-4.3l5.25-6.18L69.47,12.7l-7,4.16a32.43,32.43,0,0,0-3.76-3.13L61.57,6,58.43,4.19l-5.22,6.39a32,32,0,0,0-4.55-1.64l.08-8.3L45.16,0,42.4,7.85c-.8-.06-1.59-.12-2.4-.12s-1.61.06-2.4.12L34.84,0,31.26.64l.08,8.3a32,32,0,0,0-4.55,1.64L21.57,4.19,18.43,6l2.87,7.71a32.43,32.43,0,0,0-3.76,3.13l-7-4.16L8.19,15.5l5.25,6.18A32.22,32.22,0,0,0,11,26L3,24.5,1.79,27.94l7,4a32,32,0,0,0-.9,4.92L0,38.17v3.66l7.89,1.32a32,32,0,0,0,.9,4.92l-7,4L3,55.5,11,54a32.22,32.22,0,0,0,2.48,4.3L8.19,64.5l2.34,2.81,7-4.16a32.43,32.43,0,0,0,3.76,3.13L18.43,74l3.15,1.83,5.22-6.39a32,32,0,0,0,4.55,1.64l-.08,8.3,3.58.64,2.75-7.85c.8.06,1.59.12,2.4.12s1.61-.06,2.4-.12L45.16,80l3.58-.64-.08-8.3a32,32,0,0,0,4.55-1.64l5.22,6.39L61.57,74l-2.87-7.71a32.43,32.43,0,0,0,3.76-3.13l7,4.16,2.34-2.81-5.25-6.18A32.23,32.23,0,0,0,69,54L77,55.5l1.24-3.44-7-4a32,32,0,0,0,.9-4.92ZM21.64,58.21A26.41,26.41,0,0,1,22.3,21.1a3.55,3.55,0,0,1,5.55.88l9.4,16.58a3.72,3.72,0,0,1-.12,3.86L27.21,57.65A3.57,3.57,0,0,1,21.64,58.21ZM64.86,46.34A25.72,25.72,0,0,1,40,66.12a25.1,25.1,0,0,1-7.8-1.24,3.67,3.67,0,0,1-1.8-5.48L41.58,41.62H61.34A3.83,3.83,0,0,1,64.86,46.34Zm-3.51-8H41.58L31,20.21a3.68,3.68,0,0,1,2.07-5.35,24.86,24.86,0,0,1,6.92-1A25.72,25.72,0,0,1,64.86,33.66,3.83,3.83,0,0,1,61.34,38.38Z"/>
    </g>
  </g>
</svg>
