<svg xmlns="http://www.w3.org/2000/svg" viewBox="0 0 67.5 67.64">
  <defs>
    <style>
      .cls-1 {
        fill: #faefc0;
      }
    </style>
  </defs>
  <title>Ativo 144</title>
  <g id="Camada_2" data-name="Camada 2">
    <g id="Layer_1" data-name="Layer 1">
      <path id="New_Message_Icon" data-name="New Message Icon" class="cls-1" d="M67.07,7.69,63.7,11.06,56.44,3.8,59.81.43a1.47,1.47,0,0,1,2.07,0l5.18,5.18A1.47,1.47,0,0,1,67.07,7.69Zm-14.29,57H2.93V14.86H41L44,11.93H0V67.64H55.72v-44l-2.93,2.93Zm4.57-51.45L53.2,17.41,44.91,25.7l-14,14-3.11-3.11,14-14,8.29-8.29,4.15-4.15,2.07-2.07L54.24,6,39.73,20.52,25.21,35l-2.38,9.63,9.63-2.38L47,27.77,61.5,13.26l-2.07-2.07Z"/>
    </g>
  </g>
</svg>
