<svg xmlns="http://www.w3.org/2000/svg" viewBox="0 0 23.37 24">
  <defs>
    <style>
      .cls-1 {
        fill: #fefbf2;
      }
    </style>
  </defs>
  <title>Ativo 13</title>
  <g id="Camada_2" data-name="Camada 2">
    <g id="Camada_1-2" data-name="Camada 1">
      <path class="cls-1" d="M23.37,16.92a1.94,1.94,0,0,0-.18.17l-5.84,6.74-.15.17L11,16.89h4.7v-.37q0-7.85,0-15.7c0-.61.2-.81.8-.81h1.29c.52,0,.74.23.74.75q0,7.88,0,15.77v.35h4.8ZM12.32,7.11,6.16,0,0,7.12H4.73c0,.1,0,.16,0,.23q0,2.77,0,5.54,0,5.17,0,10.35a.68.68,0,0,0,.77.76H6.76c.57,0,.82-.25.82-.84q0-7.3,0-14.6c0-.47,0-.94,0-1.45Z"/>
    </g>
  </g>
</svg>
