<svg xmlns="http://www.w3.org/2000/svg" viewBox="0 0 244.26 279.5">
  <title>Ativo 207</title>
  <g id="Camada_2" data-name="Camada 2">
    <g id="Layer_1" data-name="Layer 1">
      <path d="M80.37,206c0-.55-4.13-3.54-4.71-4.14-6.41-6.67-4.92-15.81-6.09-24.4-.15-1.13-2.25-15.07-2-15.12,0,0-9.1,1.12-12.31-9.24,0,0-4.81-23.79-7.76-29.11,0,0-4.55-13.15,5.89-13.71,0,0-4-25.47-4-27.71,0,0-8.56-40.86,13.64-54.3,0,0,16.59-17.63,34.51-21.83,0,0,4-1.12,6.15,0,0,0,2.41-5.6,19.8-6.44,0,0,59.39,2.52,69.29,45.62,0,0,6.15,41.42-4.81,66.89,0,0,12-2,6.42,14.27a90.36,90.36,0,0,0-3.48,14c-.74,4.23-.59,9.39-2,13.4-1.88,5.39-6.53,5.95-11.22,4.67-1.61,4.53-2,11.12-2.58,16.07-1,8.42-.17,27.93-11.49,29.62,0,17.9-5.47,47.29,16.59,53.46,0,0,22.66,2,51.57,13.13l12.53,8.31H0l9.94-6.93c14.93-6.19,31.87-11.49,56.52-17.31C83,251.34,80.37,220.5,80.37,206Z"/>
    </g>
  </g>
</svg>
