<?xml version="1.0" encoding="iso-8859-1"?>
<!-- Generator: Adobe Illustrator 18.0.0, SVG Export Plug-In . SVG Version: 6.00 Build 0)  -->
<!DOCTYPE svg PUBLIC "-//W3C//DTD SVG 1.1//EN" "http://www.w3.org/Graphics/SVG/1.1/DTD/svg11.dtd">
<svg version="1.1" id="Capa_1" xmlns="http://www.w3.org/2000/svg" xmlns:xlink="http://www.w3.org/1999/xlink" x="0px" y="0px"
	 viewBox="0 0 223.689 223.689" style="enable-background:new 0 0 223.689 223.689;" xml:space="preserve">
<path d="M95.045,206.047h33.6l5.014,17.642h23.095L125.036,90.341c7.559-4.511,12.634-12.767,12.634-22.191
	c0-14.239-11.585-25.824-25.825-25.824c-14.24,0-25.825,11.585-25.825,25.824c0,9.424,5.075,17.681,12.634,22.191L66.935,223.689
	h23.096L95.045,206.047z M111.844,58.325c5.417,0,9.825,4.407,9.825,9.824c0,5.418-4.408,9.826-9.825,9.826
	c-5.418,0-9.825-4.408-9.825-9.826C102.019,62.732,106.427,58.325,111.844,58.325z M162.608,111.488l-14.143-14.143
	c7.798-7.798,12.093-18.166,12.093-29.194s-4.295-21.396-12.093-29.194l14.143-14.142c11.575,11.576,17.95,26.967,17.95,43.337
	S174.183,99.912,162.608,111.488z M187.421,136.303l-14.142-14.143c14.426-14.426,22.371-33.606,22.371-54.009
	c0-20.402-7.945-39.583-22.371-54.009L187.421,0c18.203,18.204,28.229,42.407,28.229,68.151
	C215.65,93.896,205.625,118.099,187.421,136.303z M61.081,111.488C49.505,99.912,43.13,84.521,43.13,68.151
	s6.375-31.761,17.95-43.337l14.143,14.142C67.425,46.755,63.13,57.123,63.13,68.151s4.294,21.396,12.093,29.194L61.081,111.488z
	 M28.039,68.151c0,20.402,7.945,39.583,22.371,54.009l-14.143,14.143C18.064,118.099,8.039,93.896,8.039,68.151
	C8.039,42.407,18.064,18.204,36.267,0L50.41,14.143C35.983,28.568,28.039,47.749,28.039,68.151z"/>
<g>
</g>
<g>
</g>
<g>
</g>
<g>
</g>
<g>
</g>
<g>
</g>
<g>
</g>
<g>
</g>
<g>
</g>
<g>
</g>
<g>
</g>
<g>
</g>
<g>
</g>
<g>
</g>
<g>
</g>
</svg>
