<svg xmlns="http://www.w3.org/2000/svg" viewBox="0 0 88 88"><defs><style>.cls-1{fill:#faefc0;opacity:0.1;}</style></defs><title>aplicativos</title><g id="Camada_2" data-name="Camada 2"><g id="elements"><path class="cls-1" d="M88,88H8L0,80V0H80l8,8ZM88,8,80,0H0V80l8,8H88ZM32,17.45,30.55,16H16V30.55L17.45,32H32Zm0,20L30.55,36H16V50.55L17.45,52H32Zm0,20L30.55,56H16V70.55L17.45,72H32Zm20-40L50.55,16H36V30.55L37.45,32H52Zm0,20L50.55,36H36V50.55L37.45,52H52Zm0,20L50.55,56H36V70.55L37.45,72H52Zm20-40L70.55,16H56V30.55L57.45,32H72Zm0,20L70.55,36H56V50.55L57.45,52H72Zm0,20L70.55,56H56V70.55L57.45,72H72Z"/></g></g></svg>