<?xml version="1.0" encoding="UTF-8"?><svg id="Layer_1" xmlns="http://www.w3.org/2000/svg" viewBox="0 0 49 19"><defs><style>.cls-1{fill:none;}.cls-2,.cls-3{fill:#fff;}.cls-4{fill:#39b44a;}.cls-3{fill-rule:evenodd;}</style></defs><g id="Battery_Icon"><path class="cls-3" d="M49,13.08h-4V6.08h4v7Z"/></g><rect class="cls-4" x="2" y="2.08" width="40" height="15"/><g><polygon class="cls-1" points="26 8.37 18.25 18.08 43 18.08 43 1.08 24.29 1.08 21.74 8.37 26 8.37"/><polygon class="cls-1" points="15.87 10.8 23.62 1.08 1 1.08 1 18.08 17.58 18.08 20.12 10.8 15.87 10.8"/><polygon class="cls-2" points="1 18.08 1 1.08 23.62 1.08 24.42 .08 0 .08 0 19.08 17.23 19.08 17.58 18.08 1 18.08"/><polygon class="cls-2" points="44 .08 24.64 .08 24.29 1.08 43 1.08 43 18.08 18.25 18.08 17.45 19.08 44 19.08 44 .08"/><polygon class="cls-3" points="15.87 10.8 20.12 10.8 17.58 18.08 18.25 18.08 26 8.37 21.74 8.37 24.29 1.08 23.62 1.08 15.87 10.8"/><polygon class="cls-3" points="17.58 18.08 17.23 19.08 17.45 19.08 18.25 18.08 17.58 18.08"/><polygon class="cls-3" points="24.29 1.08 24.64 .08 24.42 .08 23.62 1.08 24.29 1.08"/></g></svg>