<svg xmlns="http://www.w3.org/2000/svg" viewBox="0 0 136 136"><defs><style>.cls-1,.cls-4{fill:#faefc0;}.cls-1{opacity:0.1;}.cls-2,.cls-3,.cls-5{fill:none;stroke:#faefc0;stroke-miterlimit:10;}.cls-2{stroke-width:0.75px;}.cls-3{stroke-width:4px;}.cls-5{stroke-linecap:round;stroke-width:2px;}</style></defs><g id="Layer_1" data-name="Layer 1"><polygon class="cls-1" points="136 136 16 136 0 120 0 0 120 0 136 16 136 136"/><polygon class="cls-2" points="136 136 16 136 0 120 0 0 120 0 136 16 136 136"/><rect class="cls-3" x="32.29" y="24.64" width="71.42" height="86.72" rx="5.5"/><path class="cls-4" d="M57.37,59.07H44.18A2.41,2.41,0,0,1,41.71,56a2.27,2.27,0,0,1,1.66-1.64,5,5,0,0,1,1.22-.13c8.55,0,17.1,0,25.65,0a4.15,4.15,0,0,1,1.93.48,2.3,2.3,0,0,1,1,2.65,2.53,2.53,0,0,1-2.26,1.73c-.28,0-.55,0-.82,0Z"/><path class="cls-4" d="M57.37,74.38c-4.39,0-8.79,0-13.19,0a2.4,2.4,0,0,1-2.47-3.12,2.28,2.28,0,0,1,1.66-1.64,4.52,4.52,0,0,1,1.22-.12q12.82,0,25.65,0a4.16,4.16,0,0,1,1.93.49,2.29,2.29,0,0,1,1,2.64,2.52,2.52,0,0,1-2.26,1.74H57.37Z"/><path class="cls-4" d="M57.37,89.68c-4.39,0-8.79,0-13.19,0a2.4,2.4,0,0,1-2.47-3.11,2.28,2.28,0,0,1,1.66-1.65,4.52,4.52,0,0,1,1.22-.12c8.55,0,17.1,0,25.65,0a4.15,4.15,0,0,1,1.93.48,2.3,2.3,0,0,1,1,2.65,2.53,2.53,0,0,1-2.26,1.73c-.28,0-.55,0-.82,0Z"/><polyline class="cls-5" points="79.48 53.73 81.61 60.35 94.78 48.87"/><polyline class="cls-5" points="79.48 69.03 81.61 75.65 94.78 64.17"/><polyline class="cls-5" points="79.48 84.34 81.61 90.95 94.78 79.48"/></g></svg>