<svg xmlns="http://www.w3.org/2000/svg" viewBox="0 0 39.91 40"><defs><style>.cls-1{fill:#faefc0;}</style></defs><title>Ativo 232</title><g id="Camada_2" data-name="Camada 2"><g id="Layer_1" data-name="Layer 1"><path id="New_Message_Icon" data-name="New Message Icon" class="cls-1" d="M39.66,4.55l-2,2L33.38,2.25l2-2a.87.87,0,0,1,1.23,0l3.07,3.07A.87.87,0,0,1,39.66,4.55ZM31.21,38.27H1.73V8.79H24.27L26,7.05H0V40H32.95V14l-1.73,1.73Zm2.7-30.43-2.45,2.45-4.9,4.9-8.29,8.29-1.84-1.84,8.29-8.29,4.9-4.9L32.07,6,33.3,4.78,32.07,3.55l-8.58,8.58-8.58,8.58-1.41,5.7L19.2,25l8.58-8.58,8.58-8.58L35.14,6.61Z"/></g></g></svg>