<svg xmlns="http://www.w3.org/2000/svg" viewBox="0 0 54.01 48">
  <defs>
    <style>
      .cls-1 {
        fill: #faefc0;
      }
    </style>
  </defs>
  <title>Ativo 193</title>
  <g id="Camada_2" data-name="Camada 2">
    <g id="Layer_1" data-name="Layer 1">
      <path class="cls-1" d="M50.35,0a4.55,4.55,0,0,1,1.74,4.08c-.09,5.87,0,11.74,0,17.61l-.78.26a6.45,6.45,0,0,1-.72-2c-.06-5.16,0-10.33,0-15.49,0-2.76-.06-2.83-2.72-2.83-14.48,0-29,0-43.45,0-2.08,0-2.74.68-2.73,2.74q.12,16,0,32.05c0,2.15.81,2.72,2.78,2.7,6.31-.07,12.62,0,18.93,0a22.31,22.31,0,0,1,2.39.26l.07.67a7.2,7.2,0,0,1-1.73.45c-7,0-13.91.1-20.86-.06-1.08,0-2.13-1.11-3.19-1.7V0ZM47.68,22c.26-.52.73-1,.74-1.55.05-4.95,0-9.89,0-14.84,0-1.14-.41-1.68-1.64-1.67q-20.64,0-41.29,0c-1.23,0-1.6.49-1.59,1.67Q4,20.3,3.92,35c0,1.37.43,1.91,1.86,1.9,6.09-.05,12.19,0,18.28-.06.56,0,1.12-.51,1.69-.79A5.38,5.38,0,0,0,24,35.39c-4.95-.05-9.89,0-14.84,0-.73,0-1.46-.08-2.71-.16L16.3,23.83l6.92,8.1,11.21-14.7c.85,1.4,1.44,2.52,2.19,3.53a5.55,5.55,0,0,0,1.55,1,5.43,5.43,0,0,0-.24-1.68c-.63-1.28-1.45-2.47-2.1-3.74-.83-1.62-1.61-1.52-2.63-.15-2.61,3.51-5.26,7-7.91,10.46-.63.83-1.31,1.62-2,2.43a5.29,5.29,0,0,1-.74-.46c-1.39-1.35-2.76-2.71-4.15-4.06-3-2.87-2.36-2.78-4.92.13s-5,5.79-7.88,9.09V5.45H7.88c12.11,0,24.23.06,36.34-.05C46.45,5.37,47,6,47,8.17c-.15,4.5,0,9,0,13.51ZM30.13,36.31A11.88,11.88,0,0,0,42,48a11.9,11.9,0,1,0,0-23.79A11.82,11.82,0,0,0,30.13,36.31Zm22.36-.07A10.67,10.67,0,0,1,41.88,46.49,10.42,10.42,0,0,1,31.67,35.74a10.3,10.3,0,0,1,10.49-10A10.56,10.56,0,0,1,52.49,36.24ZM9.55,14a4.53,4.53,0,0,0,4.59,4.4,4.46,4.46,0,0,0,4.3-4.45A4.24,4.24,0,0,0,14,9.51,4.32,4.32,0,0,0,9.55,14Zm4.31,2.83a2.81,2.81,0,0,1-2.75-2.95,2.77,2.77,0,0,1,3-2.81,2.76,2.76,0,0,1,2.75,2.89A2.88,2.88,0,0,1,13.86,16.81ZM14.14,11a2.77,2.77,0,0,0-3,2.81,2.81,2.81,0,0,0,2.75,2.95,2.88,2.88,0,0,0,3-2.87A2.76,2.76,0,0,0,14.14,11ZM42.67,42.31V32.85L46,35l.67-.83c-1.42-1.4-2.84-2.82-4.29-4.19a.79.79,0,0,0-.77,0c-1.46,1.39-2.88,2.81-4.31,4.23l.59.78,3.48-2.13v9.44Z"/>
    </g>
  </g>
</svg>
