<svg xmlns="http://www.w3.org/2000/svg" viewBox="0 0 55.35 56">
  <defs>
    <style>
      .cls-1 {
        fill: #faefc0;
      }
    </style>
  </defs>
  <title>Ativo 146</title>
  <g id="Camada_2" data-name="Camada 2">
    <g id="Layer_1" data-name="Layer 1">
      <path class="cls-1" d="M52.35,7.67l-2,2L46,5.34l2-2a.88.88,0,0,1,1.24,0l3.1,3.1A.88.88,0,0,1,52.35,7.67ZM46.54,11l-2.48,2.48-5,5L30.7,26.84,28.84,25l8.39-8.39,5-5,2.48-2.48L45.92,7.9,44.68,6.66,36,15.34,27.3,24l-1.42,5.77,5.77-1.42,8.69-8.69L49,11,47.78,9.76Zm8.58,31.75-.07-.22a1.55,1.55,0,0,0-.13-.31A23.63,23.63,0,0,0,50.43,36,5.91,5.91,0,0,0,46,34.29a8.89,8.89,0,0,1-7.19-2.75l-4-4.07-1.06,1.06,4,4.06a10.45,10.45,0,0,0,8.34,3.19,4.46,4.46,0,0,1,3.35,1.33A22.51,22.51,0,0,1,53.62,43l.08.24c.22.69.19.79,0,.91s-.19.12-.76-.27l-.21-.13c-1.18-.75-2.4-1.56-3.62-2.42a2.65,2.65,0,0,0-3.32-.06,10.32,10.32,0,0,0-2.29,2.19,9.8,9.8,0,0,0-1,2c-.13.32-.26.65-.41,1a3.23,3.23,0,0,0,1.09,4.25c.83.64,1.72,1.21,2.57,1.77l1,.67.53.33a7,7,0,0,1,.8.54l.1.08-.08,0a8.92,8.92,0,0,1-2.21.42c-2.78.15-5.66,0-7.93-2.06a5.25,5.25,0,0,1-2-4.48A18.87,18.87,0,0,0,35.88,44a8.88,8.88,0,0,0-2.7-5.26l-2.58-2.54q-6-5.87-12-11.72a9.37,9.37,0,0,0-6.7-2.72q-.44,0-.89,0c-2.85.23-5-.92-6.93-3.73C3.39,17,2.69,15.88,2,14.8l-.2-.32a2.07,2.07,0,0,1-.32-.67v-.1a5.48,5.48,0,0,1,0-.92,2.16,2.16,0,0,1,.81.21,18.1,18.1,0,0,1,1.94,1.22l.79.54.45.31.34.23c2.21,1.49,3.72,1.35,5.57-.51a11.74,11.74,0,0,0,2.85-5.71,2.83,2.83,0,0,0-1-2.87c-.86-.72-1.8-1.44-3-2.26-.41-.28-.83-.53-1.24-.77s-.88-.52-1.27-.8a1.62,1.62,0,0,1-.32-.33,1.1,1.1,0,0,1,.37-.18,12.79,12.79,0,0,1,2.86-.37,20.72,20.72,0,0,1,4.28.39c3.92.91,5.82,3.75,5.64,8.46a11.31,11.31,0,0,0,3.66,8.72l3,3L28.33,21c-1-1-1.72-2-2.74-3-2.23-2.19-3.91-4.88-2.91-7.57v0c0-5.45-2.44-8.91-7.1-10A23.77,23.77,0,0,0,10.82,0,15,15,0,0,0,7.54.41,2.19,2.19,0,0,0,5.9,1.77c-.15.76.57,1.52,1,1.82s.92.61,1.38.88.78.46,1.14.71c1.14.79,2.05,1.48,2.87,2.17a1.37,1.37,0,0,1,.55,1.38,10.37,10.37,0,0,1-2.45,5c-1.36,1.37-2,1.43-3.67.33l-.32-.22-.48-.33L5.13,13A19.45,19.45,0,0,0,3,11.68c-.44-.23-1.73-.68-2.46-.08S0,13,0,13.75v.1a2.93,2.93,0,0,0,.54,1.42l.2.32c.68,1.1,1.39,2.24,2.14,3.33C4.3,21,6.7,23.64,11.17,23.29a8,8,0,0,1,6.42,2.26q6,5.85,12,11.72l2.58,2.54A7.42,7.42,0,0,1,34.4,44.2a17.45,17.45,0,0,1,.15,3.6A6.72,6.72,0,0,0,37,53.5,10.41,10.41,0,0,0,44.46,56c.53,0,1.06,0,1.59,0a10.46,10.46,0,0,0,2.59-.49c.87-.28,1.13-.78,1.2-1.14a1.6,1.6,0,0,0-.73-1.55,8.14,8.14,0,0,0-1-.66l-.48-.3-1-.68c-.83-.54-1.69-1.1-2.48-1.7A1.77,1.77,0,0,1,43.5,47c.16-.34.31-.69.45-1a8.55,8.55,0,0,1,.83-1.69,9.09,9.09,0,0,1,2-1.85c.32-.24.78-.45,1.55.1,1.24.87,2.48,1.7,3.68,2.46l.18.12a2,2,0,0,0,2.52.19A2.09,2.09,0,0,0,55.12,42.75Z"/>
    </g>
  </g>
</svg>
