<svg xmlns="http://www.w3.org/2000/svg" viewBox="0 0 29.69 39.06"><defs><style>.cls-1{fill:#faefc0;}</style></defs><title>Ativo 234</title><g id="Camada_2" data-name="Camada 2"><g id="Layer_1" data-name="Layer 1"><path class="cls-1" d="M21.88,4.69h0V3.13A3.13,3.13,0,0,0,18.75,0H10.94A3.13,3.13,0,0,0,7.81,3.13V4.69H0V6.25H1.56L3,35.35a3.9,3.9,0,0,0,3.9,3.71H22.77a3.9,3.9,0,0,0,3.9-3.71L28.13,6.25h1.56V4.69ZM9.38,3.13a1.56,1.56,0,0,1,1.56-1.56h7.81a1.56,1.56,0,0,1,1.56,1.56V4.69H9.38ZM25.11,35.28a2.34,2.34,0,0,1-2.34,2.22H6.91a2.34,2.34,0,0,1-2.34-2.22l-1.45-29H26.56Zm-9.49-.9H14.06v-25h1.56Zm4.69,0H18.75l1.56-25h1.56Zm-10.94,0-1.56-25H9.38l1.56,25Z"/></g></g></svg>