<svg id="_Camada_" data-name="&lt;Camada&gt;" xmlns="http://www.w3.org/2000/svg" viewBox="0 0 674 760">
  <defs>
    <style>
    .cls-1{fill:#231f20;stroke:#faefc0;stroke-width:0.5px;}
    .cls-1,.cls-2{stroke-miterlimit:10;}
    .cls-2{fill:#404041;stroke:#a6a8ab;}
    </style>
  </defs>
  <title>carro - vista frontal</title>
  <path class="cls-1" d="M660.32,56.89h0Z"/>
  <path class="cls-2" d="M613.57,94H58.9V57.2H613.57Zm0-36.77L395.48,69.46V94H613.57ZM395.48,69.46H277V94H395.48ZM58.9,94H277V69.46L58.9,57.2ZM582.08,673.12a43.44,43.44,0,1,0,43.44,43.44A43.44,43.44,0,0,0,582.08,673.12Zm0,5.13a38.31,38.31,0,1,0,38.31,38.31A38.31,38.31,0,0,0,582.08,678.25Zm-466-5.13a43.44,43.44,0,1,0,43.44,43.44A43.44,43.44,0,0,0,116.1,673.12Zm0,5.13a38.31,38.31,0,1,0,38.31,38.31A38.31,38.31,0,0,0,116.1,678.25Zm0,11.37A26.94,26.94,0,1,0,143,716.56,26.94,26.94,0,0,0,116.1,689.62Zm37.1-38.57-37.1-1.38-37,1.94L105,721.56h0c1.6,3,5.94,7.29,11.06,7.29a12,12,0,0,0,11.06-8.15l.08-.13Zm-42.78,68.78,5.67,3.28,5.67-3.28v-6.55L116.1,710l-5.67,3.28Zm471.66-30.11a26.9,26.9,0,1,0,26.9,26.9A26.9,26.9,0,0,0,582.08,689.73Zm36.78-22.8-31.07-2.37h-6.54l.14-12-49.09,0v11l40.58,59.11A11,11,0,0,0,593,715h0l-4.33-30.16c-.3-2.11,1.49-6.18,4.73-6.71s20.83-3.57,22.46-3.87a3.48,3.48,0,0,0,3.18-3.81C618.88,668,618.86,666.92,618.86,666.92Zm-42.44,53,5.66,3.27,5.66-3.27v-6.54l-5.66-3.27-5.66,3.27Zm-1.66-66.13L603.36,664V94h-28.6Zm0-559.78h-477V653.76h477ZM69.11,132.34V94s-37.23-27-48-34.68S-4.39,63.64,1.23,75.39s30.39,56.95,30.39,56.95Zm-17.91,1,19.41-.17V98.46L41.33,77.52Zm591.15-1s24.77-45.2,30.39-56.95-9.19-23.75-19.92-16.09-48,34.68-48,34.68v38.36Zm-9.7-54.82L603.36,98.46v34.73l19.41.17ZM18.78,62.63c8.44,6,38.33,27.86,50.33,36.63V94.2c-13.18-9.63-40-29.2-48-34.9a12.56,12.56,0,0,0-7.38-2.41h-.13C4.84,57-3.13,66.26,1.23,75.39c5.62,11.75,30.39,56.95,30.39,56.95l34,71,3.52-33.28v-38.8L63,188.55l-27.74-58,0-.1-.05-.1C35,129.93,10.42,85.14,4.92,73.63a8,8,0,0,1,.49-7.89A10.22,10.22,0,0,1,13.77,61h0A8.48,8.48,0,0,1,18.78,62.63Zm-5.13-5.74h0Zm55.47,75.45H58.9V635.43H69.11Zm-10.22,0H31.62V628.23l27.27,7.21ZM125.09,0H107V56.89h18ZM660.2,61h0a10.22,10.22,0,0,1,8.36,4.76,8,8,0,0,1,.49,7.89c-5.51,11.51-30,56.3-30.29,56.75l-.05.1,0,.1-27.74,58-6.07-57.29v38.8l3.52,33.28,34-71s24.77-45.2,30.39-56.95c4.37-9.13-3.61-18.41-12.41-18.5h-.13a12.56,12.56,0,0,0-7.38,2.41c-8,5.7-34.78,25.26-48,34.9v5.06c12-8.78,41.9-30.61,50.33-36.63A8.48,8.48,0,0,1,660.2,61ZM604.86,635.43h10.22V132.34H604.86Zm10.22,0,27.27-7.21V132.34H615.07ZM97.71,94H69.11V664l28.6-10.22Z"/>
</svg>
