<svg xmlns="http://www.w3.org/2000/svg" viewBox="0 0 33.25 43.75"><defs><style>.cls-1{fill:#faefc0;}</style></defs><title>Ativo 226</title><g id="Camada_2" data-name="Camada 2"><g id="Layer_1" data-name="Layer 1"><path class="cls-1" d="M22.75,38.5H21l1.75-28H24.5Zm-10.5,0-1.75-28H8.75l1.75,28Zm5.25-28H15.75v28H17.5ZM33.25,5.25V7H31.5L29.88,39.6a4.37,4.37,0,0,1-4.37,4.15H7.74A4.37,4.37,0,0,1,3.37,39.6L1.75,7H0V5.25H8.75V3.5A3.5,3.5,0,0,1,12.25,0H21a3.5,3.5,0,0,1,3.5,3.5V5.25h8.75Zm-22.75,0H22.75V3.5A1.75,1.75,0,0,0,21,1.75H12.25A1.75,1.75,0,0,0,10.5,3.5ZM29.75,7H3.5L5.12,39.51A2.62,2.62,0,0,0,7.74,42H25.51a2.62,2.62,0,0,0,2.62-2.49Z"/></g></g></svg>
