<svg xmlns="http://www.w3.org/2000/svg" viewBox="0 0 45.91 56">
  <defs>
    <style>
      .cls-1 {
        fill: #faefc0;
      }
    </style>
  </defs>
  <title>Ativo 148</title>
  <g id="Camada_2" data-name="Camada 2">
    <g id="Layer_1" data-name="Layer 1">
      <path class="cls-1" d="M15.26,56a14.8,14.8,0,0,1-2-.79A5.13,5.13,0,0,1,10.6,51a8.05,8.05,0,0,1,0-.85q0-11.31,0-22.63c0-.17,0-.35,0-.47h4v.59q0,11.29,0,22.59a1.46,1.46,0,0,0,.69,1.48,2.08,2.08,0,0,0,.89.21c1,0,2.09,0,3.13,0H40.15c1.2,0,1.75-.54,1.75-1.74q0-17.75,0-35.51c0-.67-.09-1.31-.76-1.63a2.59,2.59,0,0,0-1.08-.2c-4.08,0-8.17,0-12.25,0H27.3l-.59-4H40.26A5.48,5.48,0,0,1,45,11.23a5.17,5.17,0,0,1,.91,2.49,7.4,7.4,0,0,1,0,.8q0,17.91,0,35.82a5.47,5.47,0,0,1-2.22,4.6,6,6,0,0,1-2.19,1l-.3.09ZM11.59,0a1.74,1.74,0,0,1-.26.07A13.15,13.15,0,0,0,6,1.92,12.53,12.53,0,0,0,.91,8a12.38,12.38,0,0,0-.67,7.11,12.35,12.35,0,0,0,4.45,7.43,12.32,12.32,0,0,0,9,2.8,12.34,12.34,0,0,0,7.75-3.47A12.68,12.68,0,0,0,24.82,8.94a12.37,12.37,0,0,0-2.74-4.76A12.52,12.52,0,0,0,15.18.27L13.83,0ZM2.69,12.71a10,10,0,1,1,10,10A10.05,10.05,0,0,1,2.69,12.71ZM35.47,27.65h.45a1.38,1.38,0,0,0,1.24-.95,1.26,1.26,0,0,0-.54-1.44A2.24,2.24,0,0,0,35.56,25q-7,0-14,0a2.46,2.46,0,0,0-.66.07,1.25,1.25,0,0,0-.91.9,1.31,1.31,0,0,0,1.35,1.7H35.47ZM31,35.85h4.69a1.43,1.43,0,0,0,1.46-1.12,1.31,1.31,0,0,0-1.45-1.55H21.13A1.31,1.31,0,0,0,20,34.39a1.39,1.39,0,0,0,1.51,1.45H31Zm1.07,8.48h3.8a1.27,1.27,0,0,0,1.21-.84,1.24,1.24,0,0,0-.29-1.4,1.54,1.54,0,0,0-1.22-.42h-14a3.75,3.75,0,0,0-.49,0A1.34,1.34,0,0,0,20,42.85a1.32,1.32,0,0,0,1.46,1.47H32.11ZM14.05,10.71c0-1.52,0-3,0-4.56a1.35,1.35,0,0,0-1.33-1.4,1.33,1.33,0,0,0-1.36,1.36q0,3.26,0,6.53A1.31,1.31,0,0,0,12.68,14c2.55,0,5.1,0,7.64,0a1.7,1.7,0,0,0,1-.52,1.13,1.13,0,0,0,.15-1.37,1.31,1.31,0,0,0-1.22-.76H14.05C14.05,11.09,14.05,10.9,14.05,10.71Z"/>
    </g>
  </g>
</svg>
