<svg xmlns="http://www.w3.org/2000/svg" viewBox="0 0 89.06 96.97">
  <defs>
    <style>
      .cls-1 {
        fill: #faefc0;
      }
    </style>
  </defs>
  <title>Ativo 158</title>
  <g id="Camada_2" data-name="Camada 2">
    <g id="Layer_1" data-name="Layer 1">
      <path class="cls-1" d="M80.14,80.14H0V0H80.14ZM2.5,77.64H77.64V2.5H2.5ZM7.08,97a7.08,7.08,0,1,1,7.08-7.08A7.09,7.09,0,0,1,7.08,97Zm0-11.67a4.58,4.58,0,1,0,4.58,4.58A4.59,4.59,0,0,0,7.08,85.31ZM78.89,97A7.08,7.08,0,1,1,86,89.89,7.09,7.09,0,0,1,78.89,97Zm0-11.67a4.58,4.58,0,1,0,4.58,4.58A4.59,4.59,0,0,0,78.89,85.31ZM83.94,1.13a3,3,0,1,0,4.24,0A3,3,0,0,0,83.94,1.13ZM64.67,22.8,61.3,26.17,54,18.91l3.37-3.37a1.47,1.47,0,0,1,2.07,0l5.18,5.18A1.47,1.47,0,0,1,64.67,22.8ZM55,28.37,50.8,32.52l-8.29,8.29-14,14-3.11-3.11,14-14,8.29-8.29,4.15-4.15,2.07-2.07-2.07-2.07L37.33,35.63,22.81,50.15l-2.38,9.63,9.63-2.38L44.58,42.89,59.1,28.37,57,26.3Z"/>
    </g>
  </g>
</svg>
