<svg xmlns="http://www.w3.org/2000/svg" viewBox="0 0 88 88"><defs><style>.cls-1{fill:#faefc0;opacity:0.1;}</style></defs><title>calculadora</title><g id="Camada_2" data-name="Camada 2"><g id="elements"><path class="cls-1" d="M88,88H8L0,80V0H80l8,8ZM88,8,80,0H0V80l8,8H88ZM63.5,21.63V66.37a3.44,3.44,0,0,1-3.44,3.44H27.94a3.44,3.44,0,0,1-3.44-3.44V21.63a3.44,3.44,0,0,1,3.44-3.44H60.06A3.44,3.44,0,0,1,63.5,21.63ZM36,57.19H29.09v6.88H36Zm0-10.32H29.09v6.88H36Zm0-10.32H29.09v6.88H36ZM47.44,57.19H40.56v6.88h6.88Zm0-10.32H40.56v6.88h6.88Zm0-10.32H40.56v6.88h6.88ZM58.91,46.87H52V64.07h6.88Zm0-10.32H52v6.88h6.88Zm0-12.62H29.09v6.88H58.91Z"/></g></g></svg>