<svg xmlns="http://www.w3.org/2000/svg" viewBox="0 0 88 88"><defs><style>.cls-1{fill:#faefc0;opacity:0.1;}</style></defs><title>calendário</title><g id="Camada_2" data-name="Camada 2"><g id="elements"><path class="cls-1" d="M88,88H8L0,80V0H80l8,8ZM88,8,80,0H0V80l8,8H88ZM41.28,52.17V52a4.1,4.1,0,0,1-3-4.12c0-2.88,2.36-4.92,5.71-4.92s5.71,2,5.71,4.92a4.08,4.08,0,0,1-3,4.12v.2a4.58,4.58,0,0,1,3.71,4.7c0,3.16-2.65,5.37-6.44,5.37S37.56,60,37.56,56.87A4.58,4.58,0,0,1,41.28,52.17Zm2.72-1c2.1,0,3.52-1.25,3.52-3.13S46.12,44.9,44,44.9s-3.52,1.27-3.52,3.17S41.9,51.2,44,51.2Zm-4.18,5.51c0,2.11,1.71,3.57,4.18,3.57s4.18-1.46,4.18-3.57S46.48,53.14,44,53.14,39.82,54.6,39.82,56.71Zm-13-25.58A2.15,2.15,0,0,0,29,29V20.4a2.15,2.15,0,0,0-4.29,0V29A2.15,2.15,0,0,0,26.83,31.13Zm34.33,0A2.15,2.15,0,0,0,63.31,29V20.4a2.15,2.15,0,1,0-4.29,0V29A2.15,2.15,0,0,0,61.17,31.13Zm8.58-8.58V69.75H18.25V22.54h4.29V29a4.29,4.29,0,0,0,8.58,0V22.54H56.88V29a4.29,4.29,0,0,0,8.58,0V22.54ZM67.6,35.42H20.4V67.6H67.6Z"/></g></g></svg>