<?xml version="1.0" encoding="UTF-8"?><svg id="Layer_1" xmlns="http://www.w3.org/2000/svg" viewBox="0 0 88 88"><defs><style>.cls-1{fill:#faefc0;opacity:.1;}.cls-2{stroke-width:.75px;}.cls-2,.cls-3,.cls-4,.cls-5{fill:none;stroke:#faefc0;}.cls-2,.cls-4{stroke-miterlimit:10;}.cls-3{stroke-linecap:square;}.cls-3,.cls-5{stroke-linejoin:round;stroke-width:2px;}</style></defs><polygon class="cls-1" points="88 88 10.35 88 0 77.65 0 0 77.65 0 88 10.35 88 88"/><polygon class="cls-2" points="88 88 10.35 88 0 77.65 0 0 77.65 0 88 10.35 88 88"/><g><g><path class="cls-4" d="M45.23,17.04c6.71,.27,12.14,3.09,16.15,8.68,.72,1,.56,1.75-.08,2.69-6.31,9.19-19.07,11.31-28.06,4.67-1.79-1.32-3.22-2.96-4.56-4.71-.71-.93-.71-1.72,0-2.69,4.06-5.61,9.52-8.48,16.57-8.64Zm.18,2.24c-4.47,.16-8.17,1.44-11.18,4.52-3,3.08-3.1,3.1-.22,6.2,6.59,7.08,18.35,5.93,23.7-1.96,.54-.79,.45-1.44-.08-2.18-3.08-4.26-7.32-6.32-12.23-6.59Z"/><path class="cls-4" d="M45.14,20.37c.64-.02,1.4,.03,2.09,.34,.58,.26,1.54,.29,1.12,1.36-.33,.84-.89,1.01-1.8,.71-1.85-.61-3.57-.3-4.92,1.21-1.31,1.46-1.42,3.14-.71,4.9,.79,1.97,3,3.02,5.21,2.53,1.91-.42,3.37-2.25,3.35-4.25,0-.55-.09-1.09-.19-1.63-.16-.85,.35-1.21,1.02-1.39,.75-.2,.96,.39,1.09,.93,.6,2.55,.23,4.87-1.73,6.76-2,1.93-4.43,2.32-6.95,1.45-2.43-.84-3.99-2.65-4.31-5.28-.53-4.3,2.4-7.64,6.72-7.63Z"/><path class="cls-4" d="M45.98,26.23c.21-.06,.39-.1,.57-.15,.59-.17,1.14-.96,1.75-.45,.63,.52,.43,1.4,.31,2.12-.32,2.07-2.51,3.37-4.65,2.82-1.95-.5-3.07-2.67-2.46-4.75,.55-1.87,2.87-3.01,4.71-2.34,.69,.25,.81,.62,.44,1.25-.26,.44-.77,.79-.66,1.5Z"/></g><polyline class="cls-3" points="23.5 16.74 11 36.74 11 49.26 77 49.26 77 36.74 64.5 16.74"/><polyline class="cls-5" points="11 49.76 11 57.26 77 57.26 77 44.74"/><polyline class="cls-5" points="11 57.76 11 64.26 77 64.26 77 51.74"/><polyline class="cls-5" points="11 64.76 11 71.26 77 71.26 77 58.74"/></g></svg>