<svg id="Layer_1" data-name="Layer 1" xmlns="http://www.w3.org/2000/svg" viewBox="0 0 88 88"><defs><style>.cls-1,.cls-3{fill:#faefc0;}.cls-1{opacity:0.1;}.cls-2{fill:none;stroke:#faefc0;stroke-miterlimit:10;stroke-width:0.75px;}</style></defs><polygon class="cls-1" points="88 88 10.35 88 0 77.65 0 0 77.65 0 88 10.35 88 88"/><polygon class="cls-2" points="88 88 10.35 88 0 77.65 0 0 77.65 0 88 10.35 88 88"/><path class="cls-3" d="M38.7,33.7H32.48a1,1,0,0,0-1,1v4.15a1,1,0,0,0,1,1H38.7a1,1,0,0,0,1-1V34.74A1,1,0,0,0,38.7,33.7Z"/><path class="cls-3" d="M43.89,39.93h6.22a1,1,0,0,0,1-1V34.74a1,1,0,0,0-1-1H43.89a1,1,0,0,0-1,1v4.15A1,1,0,0,0,43.89,39.93Z"/><path class="cls-3" d="M38.7,43H32.48a1,1,0,0,0-1,1v4.14a1,1,0,0,0,1,1H38.7a1,1,0,0,0,1-1V44.08A1,1,0,0,0,38.7,43Z"/><path class="cls-3" d="M27.3,43H21.08a1,1,0,0,0-1,1v4.14a1,1,0,0,0,1,1H27.3a1,1,0,0,0,1-1V44.08A1,1,0,0,0,27.3,43Z"/><path class="cls-3" d="M38.7,52.37H32.48a1,1,0,0,0-1,1v4.15a1,1,0,0,0,1,1H38.7a1,1,0,0,0,1-1V53.41A1,1,0,0,0,38.7,52.37Z"/><path class="cls-3" d="M27.3,52.37H21.08a1,1,0,0,0-1,1v4.15a1,1,0,0,0,1,1H27.3a1,1,0,0,0,1-1V53.41A1,1,0,0,0,27.3,52.37Z"/><path class="cls-3" d="M68.78,37.65V22.3a4.15,4.15,0,0,0-4.15-4.15H58.44V15a1,1,0,1,0-2.07,0v3.11H26.29V15a1,1,0,1,0-2.07,0v3.11H18a4.15,4.15,0,0,0-4.14,4.15V60.67A4.16,4.16,0,0,0,18,64.82h33.6A16.59,16.59,0,1,0,68.78,37.65ZM63.59,67.93A14.57,14.57,0,0,1,49.07,53.41c0-.35,0-.7,0-1a14,14,0,0,1,.56-3.11,14.34,14.34,0,0,1,1.47-3.32,14.59,14.59,0,0,1,7.07-6,14.18,14.18,0,0,1,4.33-1c.35,0,.69,0,1,0a14.46,14.46,0,0,1,3.11.34,14.28,14.28,0,0,1,2.08.62,14.52,14.52,0,0,1-5.19,28.08ZM15.89,22.3A2.08,2.08,0,0,1,18,20.22h6.26v3.11a1,1,0,1,0,2.07,0V20.22H56.37v3.11a1,1,0,1,0,2.07,0V20.22h6.19A2.08,2.08,0,0,1,66.7,22.3v5.18H15.89ZM18,62.74a2.07,2.07,0,0,1-2.07-2.07V29.56H66.7v7.55a16.73,16.73,0,0,0-3.11-.29c-.35,0-.69,0-1,0V34.74a1,1,0,0,0-1-1H55.3a1,1,0,0,0-1,1v4.15a1,1,0,0,0,.24.65,16.69,16.69,0,0,0-3.93,3.61,1,1,0,0,0-.46-.11H43.89a1,1,0,0,0-1,1v4.14a1,1,0,0,0,1,1h3.64A15.89,15.89,0,0,0,47,52.37H43.89a1,1,0,0,0-1,1v4.15a1,1,0,0,0,1,1h3.94a16.72,16.72,0,0,0,2.05,4.15Z"/><path class="cls-3" d="M73.39,57.15l-4.61-2.31-4.15-2.07V43a1,1,0,1,0-2.07,0V53.41a1,1,0,0,0,.57.92L72.46,59a1,1,0,0,0,.46.11,1,1,0,0,0,.93-.57A1,1,0,0,0,73.39,57.15Z"/></svg>