<svg xmlns="http://www.w3.org/2000/svg" viewBox="0 0 96 96"><defs><style>.cls-1{fill:#58595b;}</style></defs><title>desligar msg 96x96</title><g id="Camada_2" data-name="Camada 2"><g id="elements"><path class="cls-1" d="M96,48A48,48,0,1,1,48,0,48,48,0,0,1,96,48ZM51,71.76a23.5,23.5,0,0,0,3-.63A22.26,22.26,0,0,0,70.25,50.76a21.62,21.62,0,0,0-4.37-14.32,38.33,38.33,0,0,0-3-3.36,1.56,1.56,0,0,0-1.73-.37A1.65,1.65,0,0,0,60,34.12a1.86,1.86,0,0,0,.75,1.68A18.83,18.83,0,0,1,45.44,68.33a18.85,18.85,0,0,1-16-21.92,18.48,18.48,0,0,1,5.91-10.7,1.76,1.76,0,0,0,.26-2.52,1.73,1.73,0,0,0-2.53-.07A22.29,22.29,0,0,0,48.34,72C49,71.93,50,71.9,51,71.76Zm-4.67-29A1.72,1.72,0,0,0,48,44.57a1.76,1.76,0,0,0,1.71-1.87q0-2,0-3.9,0-6.5,0-13a1.73,1.73,0,0,0-1.24-1.73,1.7,1.7,0,0,0-2.19,1.76c0,2.8,0,5.6,0,8.4S46.28,39.89,46.29,42.72Z"/></g></g></svg>