<?xml version="1.0" encoding="UTF-8"?><svg id="elements" xmlns="http://www.w3.org/2000/svg" viewBox="0 0 88 88"><defs><style>.cls-1{opacity:.1;}.cls-1,.cls-2{fill:#faefc0;}.cls-3{fill:#fff;}.cls-4{fill:none;stroke:#faefc0;stroke-miterlimit:10;stroke-width:.75px;}</style></defs><g><polygon class="cls-1" points="88 88 8 88 0 80 0 0 80 0 88 8 88 88"/><polygon class="cls-4" points="88 88 8 88 0 80 0 0 80 0 88 8 88 88"/></g><g><path class="cls-2" d="M74.88,50.11l-10.69,20.23c-.52,1.01-2.01,2.07-3.15,2.07H18.16c-.91,0-1.77-.35-2.41-.99-.64-.64-1-1.51-1-2.41V35.71c0-1.88,1.53-3.41,3.42-3.41h15.93v2.91h-14.89c-.41,0-.8,.16-1.1,.45-.29,.29-.45,.68-.45,1.1v31.21c0,.86,.7,1.55,1.55,1.55h2.15l10.13-20.5c.57-1.14,1.65-2.07,2.8-2.07h24.81v-10.76c1.63,.15,2.91,1.49,2.91,3.15v7.61h11.38c1.34,.01,2.48,1.34,1.49,3.16Z"/><g><path class="cls-2" d="M32.94,24.45l7.69,16.73c.3,.66,1.08,.94,1.73,.64l29.81-13.7c.66-.3,.94-1.08,.64-1.73l-7.69-16.73c-.22-.47-.69-.76-1.21-.76l-7.56,20.42c-.2,.54-.6,.98-1.13,1.22s-1.12,.26-1.66,.06l-20.42-7.56c-.34,.38-.43,.93-.21,1.41Z"/><path class="cls-2" d="M53.47,28.93c.65,.24,1.42-.11,1.65-.76l6.92-18.69-27.27,12.53,18.69,6.92Z"/><polygon class="cls-3" points="63.92 8.9 56.36 29.32 63.92 8.9 63.92 8.9"/><polygon class="cls-3" points="33.15 23.04 33.15 23.04 53.57 30.6 33.15 23.04"/></g></g></svg>