<svg id="_1" data-name="1" xmlns="http://www.w3.org/2000/svg" xmlns:xlink="http://www.w3.org/1999/xlink" viewBox="0 0 238.15 164.61"><defs><style>.cls-1{fill:url(#Gradiente_sem_nome_23);}.cls-2{fill:url(#Gradiente_sem_nome_22);}.cls-3{fill:url(#linear-gradient);}</style><linearGradient id="Gradiente_sem_nome_23" x1="119.88" y1="85.47" x2="238.15" y2="85.47" gradientUnits="userSpaceOnUse"><stop offset="0" stop-color="#878787"/><stop offset="0.05" stop-color="#939393"/><stop offset="0.21" stop-color="#b7b7b7"/><stop offset="0.37" stop-color="#d2d2d2"/><stop offset="0.52" stop-color="#e6e6e6"/><stop offset="0.68" stop-color="#f2f2f2"/><stop offset="0.85" stop-color="#f6f6f6"/></linearGradient><linearGradient id="Gradiente_sem_nome_22" y1="85.31" x2="118.27" y2="85.31" gradientUnits="userSpaceOnUse"><stop offset="0.01" stop-color="#878787"/><stop offset="0.17" stop-color="#8d8d8d"/><stop offset="0.37" stop-color="#9d9d9d"/><stop offset="0.6" stop-color="#b7b7b7"/><stop offset="0.85" stop-color="#dcdcdc"/><stop offset="1" stop-color="#f6f6f6"/></linearGradient><linearGradient id="linear-gradient" x1="108.91" y1="168.82" x2="108.91" y2="-5.98" gradientTransform="translate(9.95 0)" gradientUnits="userSpaceOnUse"><stop offset="0" stop-color="#fff"/><stop offset="0.08" stop-color="#fce9da"/><stop offset="0.2" stop-color="#f9cdaa"/><stop offset="0.32" stop-color="#f6b582"/><stop offset="0.45" stop-color="#f4a160"/><stop offset="0.58" stop-color="#f29147"/><stop offset="0.71" stop-color="#f18734"/><stop offset="0.85" stop-color="#f0802a"/><stop offset="1" stop-color="#f07e26"/></linearGradient></defs><path class="cls-1" d="M119.88,164.61,156.62,90a39.1,39.1,0,0,1,7.57-10.51l74-73.14L126.36,55.71,120,64Z"/><path class="cls-2" d="M118.27,64l-6.36-8.24L0,6.18,74.61,79.26a38.85,38.85,0,0,1,7.84,10.92l35.82,74.26Z"/><path class="cls-3" d="M0,0,111.91,49.24h14.45L237.72,0,135,10.14a153.87,153.87,0,0,1-29.89,0Z"/></svg>