<?xml version="1.0" encoding="UTF-8"?><svg id="elements" xmlns="http://www.w3.org/2000/svg" viewBox="0 0 96 96"><defs><style>.cls-1,.cls-2{fill:#fff;}.cls-3{fill:#be1e2d;}.cls-2{opacity:0;}</style></defs><circle class="cls-3" cx="48" cy="48" r="48"/><g id="Trash_Button"><rect id="Toolbar_Icon_Frame" class="cls-2" x="20.31" y="16.36" width="55.37" height="63.28"/><path id="Trash_Icon" class="cls-1" d="M66.79,28.22h-9.89v-1.98c0-2.18-1.77-3.96-3.96-3.96h-9.89c-2.18,0-3.96,1.77-3.96,3.96v1.98h-9.89v1.98h1.98l1.84,36.83c.14,2.63,2.3,4.69,4.94,4.69h20.07c2.63,0,4.8-2.06,4.94-4.69l1.84-36.84h1.98v-1.98Zm-25.71-1.98c0-1.09,.89-1.98,1.98-1.98h9.89c1.09,0,1.98,.89,1.98,1.98v1.98h-13.84v-1.98Zm19.92,40.69c-.08,1.58-1.38,2.81-2.96,2.81h-20.07c-1.58,0-2.88-1.24-2.96-2.81l-1.83-36.74h29.66l-1.83,36.74Zm-12.01-1.14h-1.98v-31.64h1.98v31.64Zm5.93,0h-1.98l1.98-31.64h1.98l-1.98,31.64Zm-13.84,0l-1.98-31.64h1.98l1.98,31.64h-1.98Z"/></g></svg>