<svg xmlns="http://www.w3.org/2000/svg" viewBox="0 0 88 88"><defs><style>.cls-1{fill:#faefc0;opacity:0.1;}</style></defs><title>histórico</title><g id="Camada_2" data-name="Camada 2"><g id="elements"><path class="cls-1" d="M88,88H8L0,80V0H80l8,8ZM88,8,80,0H0V80l8,8H88ZM59.67,72.19l.32-.1a6.51,6.51,0,0,0,2.36-1,5.89,5.89,0,0,0,2.39-5q0-19.31,0-38.62a8,8,0,0,0,0-.87,5.57,5.57,0,0,0-1-2.68,5.9,5.9,0,0,0-5.07-2.55H44l.64,4.34h.56c4.4,0,8.81,0,13.21,0a2.79,2.79,0,0,1,1.16.21c.72.34.82,1,.82,1.76q0,19.14,0,38.29c0,1.29-.59,1.87-1.89,1.87H36.07c-1.13,0-2.25,0-3.38,0a2.24,2.24,0,0,1-1-.23A1.58,1.58,0,0,1,31,66q0-12.18,0-24.35V41H26.66c0,.13,0,.32,0,.51q0,12.2,0,24.4a8.68,8.68,0,0,0,0,.92,5.53,5.53,0,0,0,2.84,4.48,16,16,0,0,0,2.18.85ZM27.75,11.81a1.87,1.87,0,0,1-.28.08,14.18,14.18,0,0,0-5.73,2,13.5,13.5,0,0,0-5.52,6.55A13.69,13.69,0,0,0,20.3,36.11a13.29,13.29,0,0,0,9.73,3,13.68,13.68,0,0,0,12.3-10.83A13.71,13.71,0,0,0,31.62,12.1l-1.46-.29Zm-9.6,13.7A10.79,10.79,0,1,1,28.94,36.3,10.84,10.84,0,0,1,18.15,25.51ZM53.5,41.62H54a1.49,1.49,0,0,0,1.33-1A1.36,1.36,0,0,0,54.73,39a2.41,2.41,0,0,0-1.13-.28q-7.54,0-15.09,0a2.65,2.65,0,0,0-.72.07,1.35,1.35,0,0,0-1,1,1.42,1.42,0,0,0,1.45,1.83H53.5Zm-4.78,8.84h5.06a1.54,1.54,0,0,0,1.58-1.21,1.42,1.42,0,0,0-1.56-1.67H38a1.41,1.41,0,0,0-1.25,1.31,1.49,1.49,0,0,0,1.62,1.56H48.72Zm1.16,9.14H54a1.37,1.37,0,0,0,1.31-.91A1.34,1.34,0,0,0,55,57.17a1.66,1.66,0,0,0-1.32-.45H38.52a4,4,0,0,0-.53,0A1.45,1.45,0,0,0,36.79,58a1.43,1.43,0,0,0,1.57,1.58H49.87ZM30.4,23.36c0-1.64,0-3.28,0-4.92A1.46,1.46,0,0,0,29,16.93,1.43,1.43,0,0,0,27.5,18.4q0,3.52,0,7a1.41,1.41,0,0,0,1.43,1.51c2.75,0,5.5,0,8.24,0a1.83,1.83,0,0,0,1.11-.56,1.22,1.22,0,0,0,.16-1.48,1.41,1.41,0,0,0-1.32-.82H30.4C30.4,23.77,30.4,23.56,30.4,23.36Z"/></g></g></svg>