<?xml version="1.0" encoding="UTF-8"?><svg id="Layer_1" xmlns="http://www.w3.org/2000/svg" viewBox="0 0 132 137.5"><defs><style>.cls-1{fill:#faefc0;}</style></defs><path class="cls-1" d="M85.45,97.54c-1.45,0-2.62,1.17-2.62,2.62,0,1.17-.45,2.26-1.28,3.09-.82,.82-1.92,1.28-3.09,1.28H43.57c-1.17,0-2.26-.45-3.09-1.28-.82-.82-1.28-1.92-1.28-3.09V37.34c0-1.17,.45-2.26,1.28-3.09,.82-.82,1.92-1.28,3.09-1.28h34.9c1.17,0,2.26,.45,3.09,1.28,.82,.82,1.28,1.92,1.28,3.09,0,1.45,1.17,2.62,2.62,2.62s2.62-1.17,2.62-2.62c0-1.29-.25-2.55-.75-3.74-.48-1.14-1.17-2.17-2.06-3.05s-1.91-1.57-3.05-2.06c-1.18-.5-2.44-.75-3.74-.75H43.57c-1.29,0-2.55,.25-3.74,.75-1.14,.48-2.17,1.17-3.05,2.06s-1.57,1.91-2.06,3.05c-.5,1.18-.75,2.44-.75,3.74v62.81c0,1.29,.25,2.55,.75,3.74,.48,1.14,1.17,2.17,2.06,3.05s1.91,1.57,3.05,2.06c1.18,.5,2.44,.75,3.74,.75h34.9c1.29,0,2.55-.25,3.74-.75,1.14-.48,2.17-1.17,3.05-2.06s1.57-1.91,2.06-3.05c.5-1.18,.75-2.44,.75-3.74,0-1.45-1.17-2.62-2.62-2.62Z"/><path class="cls-1" d="M101.27,70.59c.11-.11,.21-.23,.29-.36,.03-.04,.05-.09,.08-.13,.06-.09,.11-.19,.15-.28,.03-.06,.04-.12,.06-.18,.03-.09,.06-.19,.09-.28,.01-.06,.02-.13,.03-.19,.02-.1,.03-.2,.03-.31,0-.04,.01-.07,.01-.11,0-.03,0-.05,0-.08,0-.11-.02-.21-.03-.32,0-.06-.01-.12-.03-.17-.02-.11-.06-.21-.1-.32-.02-.05-.03-.1-.05-.14-.06-.14-.14-.28-.23-.42h0c-.1-.15-.21-.28-.34-.41v-.02c-.67-.65-13.81-13.79-13.94-13.93-1.02-1.02-2.68-1.02-3.7,0-1.02,1.02-1.02,2.68,0,3.7l9.49,9.49h-28.58c-1.45,0-2.62,1.17-2.62,2.62s1.17,2.62,2.62,2.62h28.58l-9.49,9.49c-1.02,1.02-1.02,2.68,0,3.7,.51,.51,1.18,.77,1.85,.77s1.34-.26,1.85-.77l13.96-13.96h.01Z"/></svg>