<svg xmlns="http://www.w3.org/2000/svg" viewBox="0 0 88 88"><defs><style>.cls-1{fill:#faefc0;opacity:0.1;}</style></defs><title>manual</title><g id="Camada_2" data-name="Camada 2"><g id="elements"><path class="cls-1" d="M88,88H8L0,80V0H80l8,8ZM88,8,80,0H0V80l8,8H88ZM57.9,28.95H30.71a6,6,0,0,1-1.53-.13C27,28.23,26.1,26,26.79,23.72a3.35,3.35,0,0,1,3.43-2.34H58.78V18.67l-.41,0c-9.39,0-18.79,0-28.18,0A6.15,6.15,0,0,0,23.86,25q0,18.86,0,37.72a6.67,6.67,0,0,0,6.66,6.61H57.28a1.47,1.47,0,0,0,1.53-1.47c0-.13,0-.26,0-.39q0-17.68,0-35.35v-3.2ZM31.65,31.66H55.82V66.41H30.51a3.62,3.62,0,0,1-3.69-3.7q0-15.5,0-31c0-.28,0-.55,0-1C28.37,31.74,30,31.67,31.65,31.66ZM60.24,65.49h3.91V22.81H30.91a2.46,2.46,0,0,0-2.43,1.56,2.4,2.4,0,0,0,2.43,3.18H60.24ZM50.31,46.76a2.17,2.17,0,0,1-2.11-1.84.6.6,0,0,0-.07-.15,1.08,1.08,0,0,1,.1-1.27c.92-1.35,1.17-1.26-.37-2.69l0,0a.74.74,0,0,0-1.13-.08,2.31,2.31,0,0,1-3,.23,1.24,1.24,0,0,1-.79-1c-.28-1.66-.37-1.72-2.07-1.64-.73,0-1,.16-1,.86A2.09,2.09,0,0,1,38,41.23l-.05,0a1.08,1.08,0,0,1-1.27-.11c-1.35-.93-1.26-1.11-2.7.39a.81.81,0,0,0-.1,1.23,2,2,0,0,1,.17,2.8l0,.05a1.13,1.13,0,0,1-1,.84c-1.61.3-1.63.35-1.59,2,0,0,0,.07,0,.11,0,.56.25,1,.82,1a2.07,2.07,0,0,1,2.07,1.86.45.45,0,0,0,0,.1,1.14,1.14,0,0,1-.12,1.28c-.9,1.32-1.12,1.22.35,2.67a.83.83,0,0,0,1.27.08,2,2,0,0,1,2.68-.19l.15.06a1.26,1.26,0,0,1,.95,1.13c.27,1.39,0,1.58,2,1.55.7,0,1-.17,1-.86a2.06,2.06,0,0,1,1.79-2,.72.72,0,0,0,.2-.08,1.19,1.19,0,0,1,1.42.13c1.34.92,1.38.9,2.49-.3.51-.55.59-.83.12-1.39A2.16,2.16,0,0,1,48.38,51a1.78,1.78,0,0,1,1.51-1.24c1.19-.16,1.27-.33,1.28-1.49S51.1,46.82,50.31,46.76Zm-9-3.31a4.75,4.75,0,1,1-4.85,4.72A4.74,4.74,0,0,1,41.35,43.44Z"/></g></g></svg>