<svg width="44.56" height="48.00000000000001" xmlns="http://www.w3.org/2000/svg">

 <title>AtivoElementos3-25</title>
 <g>
  <title>Layer 1</title>
  <g data-name="Camada 2" id="Camada_2">
   <g id="elements">
    <path id="svg_1" fill="#faefc0" d="m22.62,48a22.29,22.29 0 0 1 -15.22,-38.86a1.73,1.73 0 0 1 2.53,0.07a1.76,1.76 0 0 1 -0.26,2.52a18.48,18.48 0 0 0 -5.91,10.7a18.25,18.25 0 0 0 3.66,14.8a18.19,18.19 0 0 0 12.3,7.13a18.83,18.83 0 0 0 15.28,-32.55a1.86,1.86 0 0 1 -0.75,-1.68a1.65,1.65 0 0 1 1.15,-1.41a1.56,1.56 0 0 1 1.73,0.37a38.33,38.33 0 0 1 3,3.36a21.62,21.62 0 0 1 4.37,14.32a22.26,22.26 0 0 1 -16.22,20.38a23.5,23.5 0 0 1 -3,0.63c-1.02,0.14 -2.02,0.22 -2.66,0.22zm-2,-29.26a1.72,1.72 0 0 0 1.72,1.85a1.76,1.76 0 0 0 1.66,-1.88q0,-2 0,-3.9q0,-6.5 0,-13a1.73,1.73 0 0 0 -1.23,-1.73a1.7,1.7 0 0 0 -2.19,1.76c0,2.8 0,5.6 0,8.4s-0.01,5.67 -0.01,8.5l0.05,0z" class="cls-1"/>
   </g>
  </g>
 </g>
</svg>