<?xml version="1.0" encoding="UTF-8"?><svg id="Layer_1" xmlns="http://www.w3.org/2000/svg" viewBox="0 0 105 64"><defs><style>.cls-1{stroke-linecap:round;}.cls-1,.cls-2{fill:none;stroke:#323232;stroke-miterlimit:10;stroke-width:2px;}</style></defs><path class="cls-2" d="M74.35,17.39c0-2.94-2.38-5.33-5.33-5.33"/><path class="cls-2" d="M79.67,17.39c0-5.88-4.77-10.65-10.65-10.65"/><path class="cls-2" d="M85,17.39c0-8.83-7.15-15.98-15.98-15.98"/><rect class="cls-1" x="30.4" y="26.71" width="10.65" height="9.32" rx="1.33" ry="1.33"/><line class="cls-2" x1="29.07" y1="42.69" x2="35.73" y2="42.69"/><line class="cls-2" x1="38.39" y1="42.69" x2="45.05" y2="42.69"/><line class="cls-2" x1="47.71" y1="42.69" x2="54.37" y2="42.69"/><path class="cls-2" d="M69.02,28.6l8.16,7.73c1.59,1.51,2.49,3.61,2.49,5.8v21.87"/><path class="cls-2" d="M54.37,49.35v2.03c0,3.65,2.06,6.99,5.33,8.62v4"/><path class="cls-2" d="M69.02,60c-2.94,0-5.33-2.38-5.33-5.33v-9.32l-6.66-6.66c-1.46-1.46-1.46-3.86,0-5.33s3.86-1.46,5.33,0l11.99,11.99"/><path class="cls-2" d="M63.69,49.35H26.41c-1.47,0-2.66-1.19-2.66-2.66V21.39c0-1.47,1.19-2.66,2.66-2.66h39.95c1.47,0,2.66,1.19,2.66,2.66v18.64"/></svg>