<svg xmlns="http://www.w3.org/2000/svg" xmlns:xlink="http://www.w3.org/1999/xlink" viewBox="0 0 674 760"><defs><style>.cls-1,.cls-12{fill:#404041;}.cls-1,.cls-2{stroke:#a6a8ab;}.cls-1,.cls-15,.cls-2,.cls-9{stroke-miterlimit:10;}.cls-15,.cls-2{fill:#231f20;}.cls-3{fill:url(#radial-gradient);}.cls-4{fill:url(#radial-gradient-2);}.cls-5{fill:url(#radial-gradient-3);}.cls-6{fill:url(#radial-gradient-4);}.cls-7{fill:url(#roda_interna);}.cls-11,.cls-8{stroke:#6d6e70;stroke-linecap:round;stroke-linejoin:round;}.cls-8{fill:url(#linear-gradient);}.cls-9{fill:#bbbdbf;stroke:#929497;stroke-width:0.28px;}.cls-10{fill:url(#roda_interna-2);}.cls-11{fill:url(#linear-gradient-2);}.cls-13{fill:url(#linear-gradient-3);}.cls-14{fill:url(#linear-gradient-4);}.cls-15{stroke:#faefc0;stroke-width:0.5px;}</style><radialGradient id="radial-gradient" cx="582.08" cy="716.56" r="43.44" gradientUnits="userSpaceOnUse"><stop offset="0.88" stop-color="#f26f21"/><stop offset="0.9" stop-color="#f27321"/><stop offset="0.93" stop-color="#f47e1f"/><stop offset="0.95" stop-color="#f6911d"/><stop offset="0.97" stop-color="#f9ac1a"/><stop offset="0.99" stop-color="#fdce17"/><stop offset="1" stop-color="#ffdd15"/></radialGradient><radialGradient id="radial-gradient-2" cx="582.08" cy="716.56" r="38.31" gradientUnits="userSpaceOnUse"><stop offset="0.67" stop-color="#404041"/><stop offset="0.84"/><stop offset="0.89" stop-color="#040303"/><stop offset="0.95" stop-color="#0f0d0e"/><stop offset="1" stop-color="#221e1f"/><stop offset="1" stop-color="#231f20"/></radialGradient><radialGradient id="radial-gradient-3" cx="116.1" cy="716.56" r="43.44" xlink:href="#radial-gradient"/><radialGradient id="radial-gradient-4" cx="116.1" cy="716.56" r="38.31" xlink:href="#radial-gradient-2"/><radialGradient id="roda_interna" cx="116.1" cy="716.56" r="26.94" gradientUnits="userSpaceOnUse"><stop offset="0.21" stop-color="#808184"/><stop offset="0.29" stop-color="#929395"/><stop offset="0.5" stop-color="#bfc0c2"/><stop offset="0.66" stop-color="#dbdcde"/><stop offset="0.76" stop-color="#e6e7e8"/><stop offset="0.81" stop-color="#e3e4e5"/><stop offset="0.85" stop-color="#d9dadb"/><stop offset="0.89" stop-color="#c8c9cb"/><stop offset="0.92" stop-color="#b1b2b3"/><stop offset="0.95" stop-color="#939495"/><stop offset="0.98" stop-color="#6e6f71"/><stop offset="1" stop-color="#58595b"/></radialGradient><linearGradient id="linear-gradient" x1="79.12" y1="689.26" x2="153.2" y2="689.26" gradientUnits="userSpaceOnUse"><stop offset="0" stop-color="#d0d2d3"/><stop offset="0.16" stop-color="#cdcfd0"/><stop offset="0.29" stop-color="#c3c5c6"/><stop offset="0.35" stop-color="#bbbdbf"/><stop offset="0.4" stop-color="#e6e7e8"/><stop offset="0.5" stop-color="#f1f1f2"/><stop offset="0.5" stop-color="#f1f1f2"/><stop offset="0.6" stop-color="#e6e7e8"/><stop offset="0.65" stop-color="#bbbdbf"/><stop offset="0.71" stop-color="#c3c5c6"/><stop offset="0.84" stop-color="#cdcfd0"/><stop offset="1" stop-color="#d0d2d3"/></linearGradient><radialGradient id="roda_interna-2" cx="582.08" cy="716.62" r="26.9" xlink:href="#roda_interna"/><linearGradient id="linear-gradient-2" x1="532.3" y1="690.09" x2="619.04" y2="690.09" gradientUnits="userSpaceOnUse"><stop offset="0" stop-color="#bbbdbf"/><stop offset="0.13" stop-color="#bbbdbf"/><stop offset="0.14" stop-color="#bbbdbf"/><stop offset="0.24" stop-color="#e6e7e8"/><stop offset="0.36" stop-color="#f1f1f2"/><stop offset="0.37" stop-color="#f1f1f2"/><stop offset="0.46" stop-color="#e6e7e8"/><stop offset="0.62" stop-color="#bbbdbf"/><stop offset="0.64" stop-color="#c3c5c6"/><stop offset="0.71" stop-color="#cdcfd0"/><stop offset="0.78" stop-color="#d0d2d3"/><stop offset="0.8" stop-color="#d0d2d3"/><stop offset="1" stop-color="#d0d2d3"/></linearGradient><linearGradient id="linear-gradient-3" x1="46.53" y1="107.02" x2="71.35" y2="102.64" gradientUnits="userSpaceOnUse"><stop offset="0"/><stop offset="0.91" stop-color="#58595b"/></linearGradient><linearGradient id="linear-gradient-4" x1="-543.63" y1="107.02" x2="-518.81" y2="102.64" gradientTransform="matrix(-1, 0, 0, 1, 83.81, 0)" xlink:href="#linear-gradient-3"/></defs><rect class="cls-1" x="58.9" y="57.2" width="554.68" height="36.77"/><polygon class="cls-2" points="613.57 93.98 395.48 93.98 395.48 69.46 613.57 57.2 613.57 93.98"/><rect class="cls-1" x="276.99" y="69.46" width="118.49" height="24.52"/><polygon class="cls-2" points="58.9 93.98 276.99 93.98 276.99 69.46 58.9 57.2 58.9 93.98"/><circle class="cls-3" cx="582.08" cy="716.56" r="43.44"/><circle class="cls-4" cx="582.08" cy="716.56" r="38.31"/><circle class="cls-5" cx="116.1" cy="716.56" r="43.44"/><circle class="cls-6" cx="116.1" cy="716.56" r="38.31"/><circle class="cls-7" cx="116.1" cy="716.56" r="26.94"/><path class="cls-8" d="M153.2,651.06l-37.1-1.38-37,1.94L105,721.56h0c1.6,3,5.94,7.29,11.06,7.29a12,12,0,0,0,11.06-8.15l.08-.13Z"/><polygon class="cls-9" points="110.43 713.28 116.1 710.01 121.77 713.28 121.77 719.84 116.1 723.11 110.43 719.84 110.43 713.28"/><circle class="cls-10" cx="582.08" cy="716.62" r="26.9"/><path class="cls-11" d="M618.86,666.92l-31.07-2.36h-6.54l.14-12-49.09,0v11l40.58,59.11a11,11,0,0,0,20.21-6.1A11.9,11.9,0,0,0,593,715h0s-4-28.06-4.33-30.17,1.49-6.17,4.74-6.71,20.83-3.57,22.46-3.87a3.48,3.48,0,0,0,3.19-3.81C618.88,668,618.86,666.92,618.86,666.92Z"/><polygon class="cls-9" points="576.42 713.35 582.08 710.08 587.75 713.35 587.75 719.89 582.08 723.16 576.42 719.89 576.42 713.35"/><polygon class="cls-2" points="574.76 93.98 603.36 93.98 603.36 663.98 574.76 653.76 574.76 93.98"/><rect class="cls-2" x="97.71" y="93.98" width="477.04" height="559.78"/><path class="cls-12" d="M31.62,132.34S6.85,87.14,1.23,75.39s9.2-23.75,19.92-16.09S69.11,94,69.11,94v38.36Z"/><polygon class="cls-13" points="41.33 77.52 70.61 98.46 70.61 133.19 51.2 133.36 41.33 77.52"/><path class="cls-12" d="M642.35,132.34s24.77-45.2,30.39-56.95-9.2-23.75-19.92-16.09-48,34.68-48,34.68v38.36Z"/><polygon class="cls-14" points="632.64 77.52 603.36 98.46 603.36 133.19 622.77 133.36 632.64 77.52"/><path class="cls-15" d="M660.32,56.89Z"/><path class="cls-2" d="M18.78,62.63c8.43,6,38.32,27.86,50.33,36.63V94.2c-13.18-9.63-40-29.19-48-34.9a12.54,12.54,0,0,0-7.38-2.41h-.13C4.84,57-3.13,66.26,1.23,75.39c5.62,11.75,30.39,57,30.39,57l34,71,3.52-33.28V131.27L63,188.55l-27.73-58-.05-.1,0-.1C35,129.93,10.42,85.14,4.92,73.63a8,8,0,0,1,.49-7.9A10.2,10.2,0,0,1,13.77,61h0A8.47,8.47,0,0,1,18.78,62.63Z"/><path class="cls-2" d="M13.64,56.89Z"/><rect class="cls-2" x="58.9" y="132.34" width="10.22" height="503.09"/><polygon class="cls-2" points="58.9 635.43 31.62 628.23 31.62 132.34 58.9 132.34 58.9 635.43"/><path class="cls-2" d="M655.19,62.63c-8.44,6-38.33,27.86-50.33,36.63V94.2c13.18-9.63,40-29.19,48-34.9a12.54,12.54,0,0,1,7.38-2.41h.12c8.81.09,16.78,9.37,12.42,18.5-5.62,11.75-30.39,57-30.39,57l-34,71-3.52-33.28V131.27l6.06,57.28,27.74-58,.05-.1,0-.1c.25-.45,24.78-45.24,30.29-56.75a8,8,0,0,0-.49-7.9A10.2,10.2,0,0,0,660.2,61h0A8.47,8.47,0,0,0,655.19,62.63Z"/><rect class="cls-2" x="604.86" y="132.34" width="10.22" height="503.09" transform="translate(1219.93 767.77) rotate(-180)"/><polygon class="cls-2" points="615.07 635.43 642.35 628.23 642.35 132.34 615.07 132.34 615.07 635.43"/><polygon class="cls-2" points="97.71 93.98 69.11 93.98 69.11 663.98 97.71 653.76 97.71 93.98"/></svg>