<svg id="Layer_1" data-name="Layer 1" xmlns="http://www.w3.org/2000/svg" viewBox="0 0 136 136"><defs><style>.cls-1,.cls-3{fill:#faefc0;}.cls-1{opacity:0.1;}.cls-2{fill:none;stroke:#faefc0;stroke-miterlimit:10;stroke-width:0.75px;}</style></defs><polygon class="cls-1" points="136 136 16 136 0 120 0 0 120 0 136 16 136 136"/><polygon class="cls-2" points="136 136 16 136 0 120 0 0 120 0 136 16 136 136"/><g id="g1427"><path id="path1380" class="cls-3" d="M52.52,27.63a2.1,2.1,0,0,0-2.1,2.1v18.9h-6.3a2.1,2.1,0,0,0-2.1,2.1v63a6.34,6.34,0,0,0,6.3,6.3h19a2.1,2.1,0,0,0,0-4.2h-19a2.05,2.05,0,0,1-2.1-2.1V52.83H84V75.92a2.1,2.1,0,0,0,4.2,0V50.73a2.1,2.1,0,0,0-2.1-2.1H79.81V29.73a2.1,2.1,0,0,0-2.1-2.1Zm2.1,4.2h21v16.8h-21Z"/><path id="path1382" class="cls-3" d="M60.91,36a2.1,2.1,0,0,0-2.1,2.1v4.2a2.1,2.1,0,0,0,4.2,0v-4.2A2.1,2.1,0,0,0,60.91,36Z"/><path id="path1384" class="cls-3" d="M69.31,36a2.1,2.1,0,0,0-2.1,2.1v4.2a2.1,2.1,0,1,0,4.2,0v-4.2A2.1,2.1,0,0,0,69.31,36Z"/><path id="path1386" class="cls-3" d="M56.71,59.12a2.1,2.1,0,0,0,0,4.2h16.8a2.1,2.1,0,0,0,0-4.2Z"/><path id="path1395" class="cls-3" d="M86.1,82.21a18.9,18.9,0,1,0,18.9,18.9A18.93,18.93,0,0,0,86.1,82.21Zm0,4.2a14.7,14.7,0,1,1-14.69,14.7A14.67,14.67,0,0,1,86.1,86.41Z"/><path id="path1417" class="cls-3" d="M91.81,94.55l-6.93,8.66-4.64-4.64a2.1,2.1,0,0,0-3,3l6.3,6.3a2.1,2.1,0,0,0,3.12-.17l8.4-10.5a2.09,2.09,0,0,0-.33-3A2.19,2.19,0,0,0,91.81,94.55Z"/></g></svg>