<svg xmlns="http://www.w3.org/2000/svg" viewBox="0 0 29.71 32"><defs><style>.cls-1{fill:#fff;}</style></defs><title>Ativo 245</title><g id="Camada_2" data-name="Camada 2"><g id="Layer_1" data-name="Layer 1"><path class="cls-1" d="M15.08,32A14.86,14.86,0,0,1,4.93,6.09a1.15,1.15,0,0,1,1.68,0,1.18,1.18,0,0,1-.17,1.68A12.32,12.32,0,0,0,2.5,15a12.17,12.17,0,0,0,2.44,9.86,12.12,12.12,0,0,0,8.2,4.75A12.55,12.55,0,0,0,23.32,7.88a1.24,1.24,0,0,1-.5-1.12,1.1,1.1,0,0,1,.77-.94,1,1,0,0,1,1.15.25,25.55,25.55,0,0,1,2,2.24,14.42,14.42,0,0,1,2.91,9.55A14.84,14.84,0,0,1,18.85,31.44a15.66,15.66,0,0,1-2,.42C16.17,31.95,15.51,32,15.08,32ZM13.72,12.49a1.15,1.15,0,0,0,1.15,1.23A1.17,1.17,0,0,0,16,12.48q0-1.3,0-2.6,0-4.33,0-8.67A1.15,1.15,0,0,0,15.18.05a1.13,1.13,0,0,0-1.46,1.18c0,1.87,0,3.73,0,5.6S13.71,10.6,13.72,12.49Z"/></g></g></svg>