<svg id="Camada_1" data-name="Camada 1" xmlns="http://www.w3.org/2000/svg" xmlns:xlink="http://www.w3.org/1999/xlink" viewBox="0 0 1920 1080"><defs><style>.cls-1{fill:#fff;}.cls-2{fill:url(#Gradiente_sem_nome_6);}.cls-3{fill:#f07e26;}.cls-4{fill:url(#Gradiente_sem_nome_7);}</style><linearGradient id="Gradiente_sem_nome_6" x1="960.8" y1="675.07" x2="1079.12" y2="675.07" gradientTransform="matrix(1, 0, 0, -1, 0, 1082)" gradientUnits="userSpaceOnUse"><stop offset="0" stop-color="#878787"/><stop offset="0.06" stop-color="#939393"/><stop offset="0.24" stop-color="#b7b7b7"/><stop offset="0.43" stop-color="#d2d2d2"/><stop offset="0.62" stop-color="#e6e6e6"/><stop offset="0.81" stop-color="#f2f2f2"/><stop offset="1" stop-color="#f6f6f6"/></linearGradient><linearGradient id="Gradiente_sem_nome_7" x1="1472" y1="459.07" x2="839.04" y2="824.51" gradientTransform="matrix(1, 0, 0, -1, 9.95, 1082)" gradientUnits="userSpaceOnUse"><stop offset="0.62" stop-color="#878787"/><stop offset="0.64" stop-color="#939393"/><stop offset="0.71" stop-color="#b7b7b7"/><stop offset="0.78" stop-color="#d2d2d2"/><stop offset="0.85" stop-color="#e6e6e6"/><stop offset="0.92" stop-color="#f2f2f2"/><stop offset="1" stop-color="#f6f6f6"/></linearGradient></defs><g id="_3" data-name=" 3"><path class="cls-1" d="M632.72,593.9l7.24-8.54c5,4.79,11.76,8,18.27,8,7.9,0,12.23-3.58,12.23-9.05,0-5.77-4.53-7.61-10.9-10.31L650,569.84c-6.91-2.88-14.18-8.34-14.18-18.59,0-11.18,9.87-19.78,23.55-19.78A30.72,30.72,0,0,1,681,540.42l-6.39,7.89c-4.46-3.8-9.23-6-15.23-6-6.65,0-11,3.11-11,8.24,0,5.51,5.34,7.55,11.15,9.93l9.46,4c8.34,3.48,14.17,8.75,14.17,18.92,0,11.36-9.43,20.84-25.17,20.84A36.14,36.14,0,0,1,632.72,593.9Z"/><path class="cls-1" d="M696.81,550.22h10.12l.94,7.18h.35c4.46-4.65,9.56-8.47,16.17-8.47,7.72,0,12.11,3.52,14.54,9.44,5-5.37,10.25-9.44,16.94-9.44,11.11,0,16.25,7.63,16.25,20.93v33H759.77V571.45c0-8.67-2.57-11.93-8.11-11.93-3.34,0-6.94,2.15-11,6.57v36.79H728.29V571.45c0-8.67-2.57-11.93-8.11-11.93-3.26,0-6.94,2.15-11,6.57v36.79H696.81Z"/><path class="cls-1" d="M786.29,588.73c0-11.28,9.35-17.15,31-19.47-.17-5.66-2.45-10.38-9.57-10.38-5.23,0-10.16,2.36-14.79,5.19l-4.55-8.24c5.79-3.64,13.25-6.9,21.62-6.9,13.16,0,19.64,8.11,19.64,22.77v31.18H819.49l-1-5.83h-.34c-4.72,4-10.12,7.12-16.34,7.12C792.64,604.17,786.29,597.91,786.29,588.73Zm31,0V576.94c-14.28,1.8-19,5.53-19,10.85,0,4.65,3.18,6.69,7.6,6.69s7.46-2.1,11.37-5.71Z"/><path class="cls-1" d="M846.37,550.22H856.5l.94,9.39h.34c3.76-6.86,9.33-10.68,15-10.68a13.41,13.41,0,0,1,6,1.07l-2.14,10.72a18,18,0,0,0-5.41-.85c-4.2,0-9.26,2.87-12.43,10.89v32.12H846.37Z"/><path class="cls-1" d="M890.14,585.13V560h-7.51v-9.27l8.15-.55,1.46-14.37h10.25v14.37h13.43V560H902.49v25.07c0,6.19,2.4,9.24,7.46,9.24a16.43,16.43,0,0,0,5.49-1.2l2.11,9.09a34.36,34.36,0,0,1-10.77,1.93C894.64,604.17,890.14,596.49,890.14,585.13Z"/><path class="cls-1" d="M948.57,593.9l7.25-8.54c5,4.79,11.75,8,18.27,8,7.89,0,12.22-3.58,12.22-9.05,0-5.77-4.52-7.61-10.89-10.31l-9.59-4.16c-6.9-2.88-14.17-8.34-14.17-18.59,0-11.18,9.86-19.78,23.54-19.78a30.68,30.68,0,0,1,21.62,8.95l-6.39,7.89c-4.46-3.8-9.22-6-15.23-6-6.64,0-11,3.11-11,8.24,0,5.51,5.34,7.55,11.16,9.93l9.45,4C993.15,568,999,573.23,999,583.4c0,11.36-9.44,20.84-25.18,20.84A36.16,36.16,0,0,1,948.57,593.9Z"/><path class="cls-1" d="M1009.28,623.43l2.27-9.57a14.3,14.3,0,0,0,3.77.73c5.54,0,8.75-3.77,10.51-9.05l1-3.3-20.72-52h12.52l9.1,25.82c1.58,4.67,3.09,9.86,4.63,14.88h.43c1.33-4.89,2.66-10.08,4-14.88l7.85-25.82h11.92l-19,55.07c-4.38,11.86-9.91,19.21-21.4,19.21A20.6,20.6,0,0,1,1009.28,623.43Z"/><path class="cls-1" d="M1062.43,596.84l5.75-7.85c4.67,3.64,9.2,5.87,14.54,5.87,5.75,0,8.45-2.7,8.45-6.3,0-4.42-5.71-6.39-11.32-8.54-6.91-2.59-14.8-6.56-14.8-15.35,0-9.13,7.38-15.74,19.17-15.74a28.44,28.44,0,0,1,17.5,6.3l-5.66,7.6c-3.69-2.71-7.4-4.59-11.54-4.59-5.3,0-7.81,2.53-7.81,5.83,0,4.16,5.32,5.75,11,7.85,7.12,2.66,15.09,6.09,15.09,15.91,0,9-7.16,16.34-20.45,16.34A33,33,0,0,1,1062.43,596.84Z"/><path class="cls-1" d="M1115.51,585.13V560H1108v-9.27l8.15-.55,1.46-14.37h10.25v14.37h13.42V560h-13.42v25.07c0,6.19,2.4,9.24,7.46,9.24a16.43,16.43,0,0,0,5.49-1.2l2.1,9.09a34,34,0,0,1-10.76,1.93C1120,604.17,1115.51,596.49,1115.51,585.13Z"/><path class="cls-1" d="M1149.11,576.59c0-17.11,11.88-27.66,24.27-27.66,14.24,0,21.75,10.29,21.75,25a31.81,31.81,0,0,1-.54,6h-33.43c1,9.35,7,14.67,15.53,14.67a22.47,22.47,0,0,0,12.22-3.82l4.2,7.68a32.7,32.7,0,0,1-18,5.7C1160.52,604.17,1149.11,594,1149.11,576.59Zm35.34-5.06c0-8.1-3.6-13-10.81-13-6.13,0-11.54,4.59-12.61,13Z"/><path class="cls-1" d="M1208.87,550.22H1219l.94,7.18h.35c4.46-4.65,9.56-8.47,16.17-8.47,7.72,0,12.11,3.52,14.54,9.44,5-5.37,10.25-9.44,16.94-9.44,11.11,0,16.25,7.63,16.25,20.93v33h-12.35V571.45c0-8.67-2.57-11.93-8.11-11.93-3.34,0-6.94,2.15-11,6.57v36.79h-12.35V571.45c0-8.67-2.57-11.93-8.11-11.93-3.26,0-7,2.15-11,6.57v36.79h-12.35Z"/><path class="cls-1" d="M649.41,661.61c0-6.4,3.77-10.3,8.81-10.3a7.37,7.37,0,0,1,5.45,2.45l-1.38,1.64a5.44,5.44,0,0,0-4-1.87c-3.75,0-6.24,3.07-6.24,8s2.38,8.12,6.14,8.12a6,6,0,0,0,4.6-2.23l1.38,1.58a7.66,7.66,0,0,1-6.08,2.87C653.12,671.88,649.41,668.05,649.41,661.61Z"/><path class="cls-1" d="M677.89,651.67h2.85l6.71,19.84h-2.67l-3.46-11.08c-.71-2.22-1.35-4.39-2-6.68h-.12c-.61,2.3-1.25,4.46-2,6.68l-3.5,11.08h-2.57Zm-3.18,11.79h9.13v2h-9.13Z"/><path class="cls-1" d="M696.12,651.67h6.22c4,0,6.94,1.45,6.94,5.59s-2.9,5.87-6.94,5.87h-3.69v8.38h-2.53Zm5.86,9.41c3.08,0,4.78-1.25,4.78-3.82s-1.7-3.54-4.78-3.54h-3.33v7.36Zm-.14,1.36,2-1.31,6,10.38H707Z"/><path class="cls-1" d="M719.31,651.67h6.22c4,0,6.94,1.45,6.94,5.59s-2.9,5.87-6.94,5.87h-3.69v8.38h-2.53Zm5.85,9.41c3.09,0,4.79-1.25,4.79-3.82s-1.7-3.54-4.79-3.54h-3.32v7.36Zm-.13,1.36,2-1.31,6,10.38H730.2Z"/><path class="cls-1" d="M741.35,661.52c0-6.35,3.5-10.21,8.48-10.21s8.48,3.87,8.48,10.21-3.5,10.36-8.48,10.36S741.35,667.88,741.35,661.52Zm14.35,0c0-4.94-2.33-8-5.87-8s-5.87,3.05-5.87,8,2.33,8.14,5.87,8.14,5.87-3.2,5.87-8.14Z"/><path class="cls-1" d="M779.44,661.52c0-6.35,3.5-10.21,8.48-10.21s8.48,3.87,8.48,10.21-3.5,10.36-8.48,10.36S779.44,667.88,779.44,661.52Zm14.35,0c0-4.94-2.33-8-5.87-8s-5.87,3.05-5.87,8,2.33,8.14,5.87,8.14S793.79,666.46,793.79,661.52Z"/><path class="cls-1" d="M806.65,651.67h6.22c4,0,6.94,1.45,6.94,5.59s-2.9,5.87-6.94,5.87h-3.69v8.38h-2.53Zm5.85,9.41c3.09,0,4.79-1.25,4.79-3.82s-1.7-3.54-4.79-3.54h-3.32v7.36Zm-.13,1.36,2-1.31,6,10.38h-2.86Z"/><path class="cls-1" d="M828.69,661.61c0-6.4,3.84-10.3,9.1-10.3a7.66,7.66,0,0,1,5.72,2.45l-1.38,1.64a5.56,5.56,0,0,0-4.27-1.87c-4,0-6.57,3.07-6.57,8s2.36,8.12,6.6,8.12a5.37,5.37,0,0,0,3.57-1.17v-5.16h-4.2v-2.1h6.5v8.34a8.44,8.44,0,0,1-6.11,2.31C832.41,671.88,828.69,668.05,828.69,661.61Z"/><path class="cls-1" d="M858.44,651.67h2.85L868,671.51h-2.68l-3.46-11.08c-.71-2.22-1.35-4.39-2-6.68h-.12c-.62,2.3-1.25,4.46-2,6.68l-3.49,11.08h-2.57Zm-3.19,11.79h9.14v2h-9.14Z"/><path class="cls-1" d="M876.67,651.67h2.61l7.18,12.48,2.14,4.1h.12c-.13-2-.32-4.23-.32-6.31V651.67h2.4v19.84h-2.61L881,659l-2.14-4.1h-.12c.12,2,.32,4.13.32,6.2v10.38h-2.4Z"/><path class="cls-1" d="M902.22,651.67h2.52v19.84h-2.52Z"/><path class="cls-1" d="M914.79,670l10.45-16.2h-9.51v-2.14h12.63v1.5l-10.45,16.21h10.55v2.13H914.79Z"/><path class="cls-1" d="M942.33,651.67h2.85l6.71,19.84h-2.67l-3.46-11.08c-.72-2.22-1.35-4.39-2-6.68h-.12c-.61,2.3-1.25,4.46-2,6.68l-3.5,11.08h-2.57Zm-3.18,11.79h9.13v2h-9.13Z"/><path class="cls-1" d="M960.56,651.67h5c6.1,0,9.37,3.55,9.37,9.85s-3.27,10-9.26,10h-5.08Zm4.78,17.77c4.64,0,6.95-2.9,6.95-7.92s-2.31-7.78-6.95-7.78h-2.25v15.7Z"/><path class="cls-1" d="M984,661.52c0-6.35,3.5-10.21,8.48-10.21s8.48,3.87,8.48,10.21-3.5,10.36-8.48,10.36S984,667.88,984,661.52Zm14.35,0c0-4.94-2.33-8-5.87-8s-5.87,3.05-5.87,8,2.33,8.14,5.87,8.14,5.86-3.2,5.86-8.14Z"/><path class="cls-1" d="M1011.2,651.67h6.22c4,0,6.94,1.45,6.94,5.59s-2.9,5.87-6.94,5.87h-3.69v8.38h-2.53Zm5.85,9.41c3.09,0,4.79-1.25,4.79-3.82s-1.7-3.54-4.79-3.54h-3.32v7.36Zm-.13,1.36,2-1.31,6.05,10.38h-2.86Z"/><path class="cls-1" d="M1046.42,651.67H1049v19.84h-2.53Z"/><path class="cls-1" d="M1060.36,651.67H1063l7.18,12.48,2.14,4.1h.12c-.13-2-.32-4.23-.32-6.31V651.67h2.4v19.84h-2.61L1064.7,659l-2.14-4.1h-.13c.13,2,.33,4.13.33,6.2v10.38h-2.4Z"/><path class="cls-1" d="M1090,653.81h-6v-2.14h14.53v2.14h-6v17.7H1090Z"/><path class="cls-1" d="M1108.09,651.67h11.44v2.14h-8.91V660h7.52v2.13h-7.52v7.22h9.21v2.13h-11.74Z"/><path class="cls-1" d="M1130,651.67h2.53v17.71h8.66v2.13H1130Z"/><path class="cls-1" d="M1150.69,651.67h2.53v19.84h-2.53Z"/><path class="cls-1" d="M1163.48,661.61c0-6.4,3.84-10.3,9.1-10.3a7.66,7.66,0,0,1,5.72,2.45l-1.38,1.64a5.56,5.56,0,0,0-4.27-1.87c-4,0-6.57,3.07-6.57,8s2.36,8.12,6.59,8.12a5.33,5.33,0,0,0,3.58-1.17v-5.16h-4.2v-2.1h6.5v8.34a8.44,8.44,0,0,1-6.11,2.31C1167.2,671.88,1163.48,668.05,1163.48,661.61Z"/><path class="cls-1" d="M1189.27,651.67h11.43v2.14h-8.91V660h7.52v2.13h-7.52v7.22H1201v2.13h-11.74Z"/><path class="cls-1" d="M1211.19,651.67h2.6l7.18,12.48,2.15,4.1h.12c-.13-2-.32-4.23-.32-6.31V651.67h2.39v19.84h-2.6L1215.53,659l-2.15-4.1h-.12c.13,2,.32,4.13.32,6.2v10.38h-2.39Z"/><path class="cls-1" d="M1240.86,653.81h-6v-2.14h14.53v2.14h-6v17.7h-2.53Z"/><path class="cls-1" d="M1258.92,651.67h11.44v2.14h-8.91V660H1269v2.13h-7.51v7.22h9.21v2.13H1259Z"/><path class="cls-2" d="M960.8,486.06l36.75-74.61a39.1,39.1,0,0,1,7.57-10.51l74-73.14L967.29,377.17l-6.36,8.23Z"/><path class="cls-3" d="M959.19,385.4l-6.35-8.23L840.92,327.63l74.61,73.08a39.13,39.13,0,0,1,7.85,10.93l35.81,74.26Z"/><path class="cls-4" d="M840.92,321.46l111.92,49.23h14.45l111.35-49.23L975.87,331.6a153.87,153.87,0,0,1-29.89,0Z"/></g></svg>