<?xml version="1.0" encoding="UTF-8"?><svg id="elements" xmlns="http://www.w3.org/2000/svg" viewBox="0 0 96 96"><defs><style>.cls-1{fill:#fff;}.cls-2{fill:#58595b;}</style></defs><circle class="cls-2" cx="48" cy="48" r="48"/><g><path class="cls-1" d="M70.8,48.03h5.76c-2.6,3.49-5.13,6.88-7.7,10.33-2.56-3.45-5.09-6.85-7.67-10.33,.7-.04,1.32-.01,1.94-.01,.64,0,1.29,0,1.93,0h1.94c0-.16,.02-.3,.02-.43-.12-4.66-1.73-8.76-4.82-12.24-3.06-3.45-6.91-5.53-11.48-6.18-5.41-.77-10.28,.56-14.6,3.9-.12,.1-.24,.2-.37,.29-.81,.57-1.89,.43-2.51-.33-.61-.76-.54-1.86,.19-2.52,.25-.23,.53-.44,.8-.65,3.17-2.38,6.71-3.85,10.64-4.39,11.68-1.6,22.63,5.96,25.28,17.44,.35,1.52,.54,3.07,.56,4.64,0,.11,0,.23,.02,.34,0,.03,.02,.05,.07,.14Z"/><path class="cls-1" d="M27.15,37.68c2.56,3.45,5.08,6.85,7.66,10.32h-5.76c0,.19,0,.34,0,.5,.08,3.46,1.03,6.67,2.89,9.58,3.07,4.81,7.44,7.77,13.07,8.7,5.58,.92,10.63-.45,15.08-3.95,.28-.22,.58-.42,.94-.49,.83-.16,1.64,.22,2.02,.96,.38,.74,.23,1.65-.4,2.2-.48,.41-.98,.79-1.5,1.15-2.99,2.09-6.29,3.38-9.9,3.88-11.86,1.63-22.64-6.08-25.28-17.28-.37-1.58-.58-3.18-.6-4.8,0-.13-.01-.25-.02-.42h-5.91c2.6-3.48,5.13-6.89,7.71-10.34Z"/></g></svg>