<?xml version="1.0" encoding="utf-8"?>
<!-- Generator: Adobe Illustrator 24.3.0, SVG Export Plug-In . SVG Version: 6.00 Build 0)  -->
<svg version="1.1" id="Layer_1" xmlns="http://www.w3.org/2000/svg" xmlns:xlink="http://www.w3.org/1999/xlink" x="0px" y="0px"
	 viewBox="0 0 136 136" style="enable-background:new 0 0 136 136;" xml:space="preserve">
<style type="text/css">
	.st0{fill:none;stroke:#FAEFC0;stroke-width:1.5;stroke-miterlimit:10;}
</style>
<path class="st0" d="M67.5,86.9c-4.3,0-7.8,3.5-7.8,7.8c0,4.3,3.5,7.8,7.8,7.8c4.3,0,7.8-3.5,7.8-7.8c0,0,0,0,0,0
	C75.3,90.4,71.9,86.9,67.5,86.9C67.5,86.9,67.5,86.9,67.5,86.9z"/>
<path class="st0" d="M76.4,72.8c-9.5-3.4-20.2-1.1-27.3,6.1c-1.5,1.5-1.5,4,0,5.5c1.5,1.5,4,1.5,5.5,0l0,0
	c5.4-5.4,13.5-6.9,20.4-3.7"/>
<path class="st0" d="M91.2,63c-16.6-11.4-38.9-9.4-53.2,4.8c-1.5,1.5-1.5,4,0,5.5c1.5,1.5,4,1.5,5.5,0c10-9.9,25-12.7,37.9-6.9"/>
<path class="st0" d="M108.1,56.8c-22.4-22.3-58.6-22.3-81,0c-1.5,1.5-1.5,4,0,5.5c0.7,0.7,1.7,1.1,2.8,1.1c1,0,2-0.4,2.8-1.2
	c19.3-19.3,50.7-19.3,70,0c1.6,1.5,4.1,1.4,5.5-0.2C109.5,60.6,109.5,58.3,108.1,56.8L108.1,56.8z"/>
<circle class="st0" cx="93.5" cy="80.5" r="13.5"/>
<line class="st0" x1="86.3" y1="73" x2="100.7" y2="88"/>
<line class="st0" x1="101" y1="73.3" x2="86" y2="87.7"/>
</svg>
