<svg id="Layer_1" data-name="Layer 1" xmlns="http://www.w3.org/2000/svg" viewBox="0 0 136 136"><defs><style>.cls-1{fill:none;stroke:#000;stroke-miterlimit:10;stroke-width:1.5px;}</style></defs><path class="cls-1" d="M67.53,86.86a7.82,7.82,0,1,0,7.82,7.81A7.81,7.81,0,0,0,67.53,86.86Z"/><path class="cls-1" d="M76.44,72.79a26.08,26.08,0,0,0-27.32,6.07,3.9,3.9,0,1,0,5.52,5.52,18.19,18.19,0,0,1,20.42-3.7"/><path class="cls-1" d="M91.24,63a41.73,41.73,0,0,0-53.17,4.8,3.9,3.9,0,1,0,5.52,5.52,33.93,33.93,0,0,1,37.88-6.91"/><path class="cls-1" d="M108.05,56.76a57.34,57.34,0,0,0-81,0,3.91,3.91,0,0,0,2.76,6.67,3.94,3.94,0,0,0,2.77-1.15,49.53,49.53,0,0,1,70,0,3.91,3.91,0,0,0,5.53-5.52Z"/><circle class="cls-1" cx="93.5" cy="80.5" r="13.5"/><line class="cls-1" x1="86.34" y1="73" x2="100.66" y2="88"/><line class="cls-1" x1="101" y1="73.34" x2="86" y2="87.66"/></svg>