<svg xmlns="http://www.w3.org/2000/svg" viewBox="0 0 97.13 65"><defs><style>.cls-1{fill:none;stroke:#faefc0;stroke-miterlimit:10;}</style></defs><title>senha apagar</title><g id="Camada_2" data-name="Camada 2"><g id="Layer_1" data-name="Layer 1"><path class="cls-1" d="M96.63,64.5h-72l-24-32,24-32h72ZM55.77,26.74l-5.59-8.49h-5L54.17,32,44.54,46.75h5l6.27-9.58a3.7,3.7,0,0,0,.74-1.71h.23a3.7,3.7,0,0,0,.74,1.71l6.27,9.58h5L59.08,32,68,18.25h-5l-5.59,8.49a3.43,3.43,0,0,0-.74,1.77h-.23A3.44,3.44,0,0,0,55.77,26.74ZM96.63.5h-72l-24,32,24,32h72Z"/></g></g></svg>