<svg id="_1" data-name="1" xmlns="http://www.w3.org/2000/svg" viewBox="0 0 667.06 159.39"><defs><style>.cls-1{fill:#fff;}</style></defs><path class="cls-1" d="M6.24,66.75l7.25-8.54c5,4.79,11.75,8,18.27,8,7.9,0,12.23-3.58,12.23-9,0-5.76-4.53-7.61-10.9-10.31l-9.58-4.16C16.6,39.82,9.33,34.35,9.33,24.1c0-11.18,9.87-19.78,23.55-19.78a30.73,30.73,0,0,1,21.62,9l-6.4,7.89c-4.46-3.8-9.22-6-15.22-6-6.65,0-11,3.11-11,8.24,0,5.51,5.34,7.55,11.15,9.93l9.46,4C50.85,40.74,56.68,46,56.68,56.18,56.68,67.54,47.25,77,31.51,77A36.15,36.15,0,0,1,6.24,66.75Z"/><path class="cls-1" d="M70.34,23.07H80.46l.94,7.18h.35c4.46-4.65,9.56-8.47,16.17-8.47,7.72,0,12.11,3.52,14.54,9.44,5-5.37,10.25-9.44,16.94-9.44,11.11,0,16.25,7.63,16.25,20.93v33H133.3V44.3c0-8.67-2.57-11.93-8.11-11.93-3.34,0-6.94,2.15-11,6.57v36.8H101.82V44.3c0-8.67-2.57-11.93-8.11-11.93-3.26,0-6.95,2.15-11,6.57v36.8H70.34Z"/><path class="cls-1" d="M159.82,61.58c0-11.28,9.35-17.15,31-19.47-.18-5.66-2.45-10.38-9.57-10.38-5.23,0-10.16,2.36-14.79,5.19l-4.55-8.23c5.79-3.65,13.25-6.91,21.61-6.91,13.17,0,19.65,8.11,19.65,22.77V75.74H193l-1-5.84h-.34C187,73.93,181.61,77,175.39,77,166.17,77,159.82,70.76,159.82,61.58Zm31,0V49.79c-14.29,1.8-19,5.53-19,10.85,0,4.65,3.18,6.69,7.59,6.69S186.88,65.23,190.79,61.62Z"/><path class="cls-1" d="M219.9,23.07H230l.94,9.39h.34c3.75-6.86,9.33-10.68,15-10.68a13.41,13.41,0,0,1,6,1.07L250.1,33.58a17.73,17.73,0,0,0-5.41-.86c-4.2,0-9.26,2.87-12.43,10.89V75.74H219.9Z"/><path class="cls-1" d="M263.67,58V32.89h-7.51V23.62l8.15-.55L265.77,8.7H276V23.07h13.42v9.82H276V58c0,6.2,2.4,9.24,7.46,9.24A16.52,16.52,0,0,0,289,66l2.1,9.09A34,34,0,0,1,280.31,77C268.17,77,263.67,69.34,263.67,58Z"/><path class="cls-1" d="M322.1,66.75l7.25-8.54c5,4.79,11.75,8,18.27,8,7.89,0,12.22-3.58,12.22-9,0-5.76-4.52-7.61-10.89-10.31l-9.59-4.16c-6.9-2.87-14.17-8.34-14.17-18.59,0-11.18,9.86-19.78,23.54-19.78a30.72,30.72,0,0,1,21.62,9L364,21.16c-4.46-3.8-9.22-6-15.23-6-6.64,0-11,3.11-11,8.24,0,5.51,5.34,7.55,11.15,9.93l9.46,4c8.34,3.48,14.18,8.75,14.18,18.92,0,11.36-9.44,20.84-25.18,20.84A36.12,36.12,0,0,1,322.1,66.75Z"/><path class="cls-1" d="M382.8,96.28l2.28-9.57a14.09,14.09,0,0,0,3.77.73c5.53,0,8.75-3.77,10.51-9l1-3.3-20.72-52h12.52l9.1,25.82c1.58,4.67,3.08,9.86,4.63,14.88h.43c1.33-4.89,2.66-10.08,4-14.88l7.85-25.82h11.92l-19,55.07c-4.38,11.86-9.91,19.21-21.4,19.21A20.68,20.68,0,0,1,382.8,96.28Z"/><path class="cls-1" d="M436,69.69l5.75-7.85c4.67,3.64,9.2,5.87,14.54,5.87,5.75,0,8.45-2.7,8.45-6.3,0-4.42-5.71-6.39-11.33-8.54-6.9-2.59-14.79-6.56-14.79-15.35,0-9.13,7.37-15.74,19.17-15.74a28.41,28.41,0,0,1,17.5,6.3l-5.66,7.6c-3.69-2.71-7.4-4.59-11.54-4.59-5.3,0-7.81,2.53-7.81,5.83,0,4.16,5.32,5.75,11,7.85,7.12,2.66,15.09,6.09,15.09,15.91,0,9.05-7.16,16.34-20.46,16.34A33,33,0,0,1,436,69.69Z"/><path class="cls-1" d="M489,58V32.89h-7.5V23.62l8.15-.55L491.14,8.7h10.25V23.07h13.42v9.82H501.39V58c0,6.2,2.4,9.24,7.46,9.24a16.52,16.52,0,0,0,5.49-1.2l2.1,9.09A34,34,0,0,1,505.68,77C493.54,77,489,69.34,489,58Z"/><path class="cls-1" d="M522.64,49.44c0-17.11,11.88-27.66,24.27-27.66,14.24,0,21.75,10.29,21.75,25a31.89,31.89,0,0,1-.54,6H534.69c1,9.35,7,14.67,15.52,14.67a22.49,22.49,0,0,0,12.23-3.82l4.2,7.68A32.66,32.66,0,0,1,548.58,77C534,77,522.64,66.81,522.64,49.44ZM558,44.38c0-8.1-3.61-13-10.81-13-6.13,0-11.54,4.59-12.61,13Z"/><path class="cls-1" d="M582.4,23.07h10.12l.94,7.18h.35c4.46-4.65,9.56-8.47,16.17-8.47,7.72,0,12.11,3.52,14.53,9.44,5-5.37,10.26-9.44,17-9.44,11.1,0,16.25,7.63,16.25,20.93v33H645.36V44.3c0-8.67-2.57-11.93-8.11-11.93-3.34,0-7,2.15-11,6.57v36.8H613.88V44.3c0-8.67-2.58-11.93-8.11-11.93-3.26,0-6.95,2.15-11,6.57v36.8H582.4Z"/><path class="cls-1" d="M22.94,134.46c0-6.4,3.77-10.3,8.8-10.3a7.38,7.38,0,0,1,5.46,2.45l-1.38,1.64a5.43,5.43,0,0,0-4-1.87c-3.75,0-6.24,3.07-6.24,8s2.38,8.12,6.14,8.12a6,6,0,0,0,4.6-2.23l1.38,1.58a7.64,7.64,0,0,1-6.08,2.87C26.64,144.73,22.94,140.9,22.94,134.46Z"/><path class="cls-1" d="M51.42,124.52h2.85L61,144.36H58.31l-3.46-11.08c-.72-2.21-1.35-4.39-2-6.68h-.12c-.61,2.3-1.25,4.47-2,6.68l-3.5,11.08H44.71Zm-3.18,11.79h9.13v2H48.24Z"/><path class="cls-1" d="M69.65,124.52h6.22c4,0,6.94,1.46,6.94,5.59,0,4-2.9,5.87-6.94,5.87H72.18v8.38H69.65Zm5.85,9.41c3.09,0,4.79-1.25,4.79-3.82s-1.7-3.54-4.79-3.54H72.18v7.36Zm-.13,1.36,2-1.31,6.05,10.38H80.54Z"/><path class="cls-1" d="M92.84,124.52h6.21c4,0,7,1.46,7,5.59,0,4-2.91,5.87-7,5.87H95.37v8.38H92.84Zm5.85,9.41c3.09,0,4.79-1.25,4.79-3.82s-1.7-3.54-4.79-3.54H95.37v7.36Zm-.13,1.36,2-1.31,6.06,10.38h-2.86Z"/><path class="cls-1" d="M114.88,134.37c0-6.35,3.49-10.21,8.48-10.21s8.48,3.87,8.48,10.21-3.5,10.36-8.48,10.36S114.88,140.73,114.88,134.37Zm14.35,0c0-4.94-2.33-8-5.87-8s-5.88,3.05-5.88,8,2.33,8.14,5.88,8.14S129.23,139.31,129.23,134.37Z"/><path class="cls-1" d="M153,134.37c0-6.35,3.5-10.21,8.48-10.21s8.48,3.87,8.48,10.21-3.5,10.36-8.48,10.36S153,140.73,153,134.37Zm14.35,0c0-4.94-2.33-8-5.87-8s-5.87,3.05-5.87,8,2.33,8.14,5.87,8.14S167.32,139.31,167.32,134.37Z"/><path class="cls-1" d="M180.18,124.52h6.21c4,0,7,1.46,7,5.59,0,4-2.91,5.87-7,5.87h-3.68v8.38h-2.53Zm5.85,9.41c3.09,0,4.79-1.25,4.79-3.82s-1.7-3.54-4.79-3.54h-3.32v7.36Zm-.13,1.36,2-1.31,6.06,10.38h-2.86Z"/><path class="cls-1" d="M202.22,134.46c0-6.4,3.84-10.3,9.1-10.3a7.69,7.69,0,0,1,5.72,2.45l-1.38,1.64a5.61,5.61,0,0,0-4.27-1.87c-4,0-6.57,3.07-6.57,8s2.36,8.12,6.59,8.12a5.36,5.36,0,0,0,3.58-1.17v-5.16h-4.2v-2.1h6.5v8.34a8.45,8.45,0,0,1-6.11,2.31C205.94,144.73,202.22,140.9,202.22,134.46Z"/><path class="cls-1" d="M232,124.52h2.85l6.71,19.84h-2.68l-3.46-11.08c-.71-2.21-1.35-4.39-2-6.68h-.12c-.62,2.3-1.25,4.47-2,6.68l-3.5,11.08h-2.56Zm-3.19,11.79h9.14v2h-9.14Z"/><path class="cls-1" d="M250.2,124.52h2.61L260,137l2.14,4.1h.12c-.13-2-.32-4.23-.32-6.31V124.52h2.39v19.84h-2.6l-7.18-12.48-2.14-4.1h-.13c.13,2,.33,4.13.33,6.2v10.38h-2.4Z"/><path class="cls-1" d="M275.74,124.52h2.53v19.84h-2.53Z"/><path class="cls-1" d="M288.32,142.86l10.45-16.2h-9.51v-2.14h12.63V126l-10.45,16.2H302v2.13H288.32Z"/><path class="cls-1" d="M315.86,124.52h2.85l6.71,19.84h-2.67l-3.46-11.08c-.72-2.21-1.35-4.39-2-6.68h-.12c-.61,2.3-1.25,4.47-2,6.68l-3.5,11.08h-2.57Zm-3.18,11.79h9.13v2h-9.13Z"/><path class="cls-1" d="M334.09,124.52h5c6.1,0,9.37,3.55,9.37,9.85s-3.27,10-9.26,10h-5.08Zm4.78,17.77c4.64,0,6.95-2.9,6.95-7.92s-2.31-7.78-6.95-7.78h-2.25v15.7Z"/><path class="cls-1" d="M357.52,134.37c0-6.35,3.5-10.21,8.48-10.21s8.48,3.87,8.48,10.21S371,144.73,366,144.73,357.52,140.73,357.52,134.37Zm14.35,0c0-4.94-2.33-8-5.87-8s-5.87,3.05-5.87,8,2.33,8.14,5.87,8.14S371.87,139.31,371.87,134.37Z"/><path class="cls-1" d="M384.73,124.52H391c4,0,6.94,1.46,6.94,5.59,0,4-2.9,5.87-6.94,5.87h-3.69v8.38h-2.53Zm5.85,9.41c3.09,0,4.79-1.25,4.79-3.82s-1.7-3.54-4.79-3.54h-3.32v7.36Zm-.13,1.36,2-1.31,6.05,10.38h-2.86Z"/><path class="cls-1" d="M420,124.52h2.53v19.84H420Z"/><path class="cls-1" d="M433.89,124.52h2.6L443.68,137l2.14,4.1h.12c-.13-2-.32-4.23-.32-6.31V124.52H448v19.84h-2.6l-7.18-12.48-2.15-4.1H436c.13,2,.32,4.13.32,6.2v10.38h-2.39Z"/><path class="cls-1" d="M463.56,126.66h-6v-2.14h14.53v2.14h-6v17.7h-2.53Z"/><path class="cls-1" d="M481.62,124.52h11.44v2.14h-8.91v6.22h7.51V135h-7.51v7.22h9.21v2.13H481.62Z"/><path class="cls-1" d="M503.54,124.52h2.53v17.71h8.66v2.13H503.54Z"/><path class="cls-1" d="M524.22,124.52h2.53v19.84h-2.53Z"/><path class="cls-1" d="M537,134.46c0-6.4,3.84-10.3,9.1-10.3a7.69,7.69,0,0,1,5.72,2.45l-1.38,1.64a5.61,5.61,0,0,0-4.27-1.87c-4,0-6.57,3.07-6.57,8s2.36,8.12,6.59,8.12a5.36,5.36,0,0,0,3.58-1.17v-5.16h-4.2v-2.1h6.5v8.34a8.45,8.45,0,0,1-6.11,2.31C540.73,144.73,537,140.9,537,134.46Z"/><path class="cls-1" d="M562.8,124.52h11.43v2.14h-8.91v6.22h7.52V135h-7.52v7.22h9.21v2.13H562.8Z"/><path class="cls-1" d="M584.72,124.52h2.6L594.5,137l2.15,4.1h.12c-.13-2-.32-4.23-.32-6.31V124.52h2.39v19.84h-2.6l-7.19-12.48-2.14-4.1h-.12c.13,2,.32,4.13.32,6.2v10.38h-2.39Z"/><path class="cls-1" d="M614.39,126.66h-6v-2.14h14.53v2.14h-6v17.7h-2.53Z"/><path class="cls-1" d="M632.45,124.52h11.44v2.14H635v6.22h7.51V135H635v7.22h9.21v2.13H632.45Z"/></svg>