<svg xmlns="http://www.w3.org/2000/svg" viewBox="0 0 88 88"><defs><style>.cls-1{fill:#faefc0;opacity:0.1;}</style></defs><title>suporte</title><g id="Camada_2" data-name="Camada 2"><g id="elements"><path class="cls-1" d="M88,88H8L0,80V0H80l8,8ZM88,8,80,0H0V80l8,8H88ZM34.52,51a33.51,33.51,0,0,1-7.44,3.23,35.7,35.7,0,0,0,1.67-6.82c-2.42-2.46-4.13-4.95-4.13-8.91,0-7.52,7.63-13.64,17-13.64,8.86,0,16.16,5.46,16.94,12.4a20.12,20.12,0,0,1,4.18,1.67c0-.15,0-.29,0-.44,0-10.31-10-17.74-21.13-17.74S20.5,28.2,20.5,38.45a15.7,15.7,0,0,0,3.6,10c.1,3.25-1.8,7.9-3.51,11.29,4.58-.83,11.09-2.67,14-4.5h0A14.36,14.36,0,0,1,34.52,51ZM65,59.52a10.81,10.81,0,0,0,2.48-6.86c0-7.05-6.86-12.21-14.54-12.21S38.42,45.57,38.42,52.66c0,7.38,8.16,14.28,19.35,11.54,2,1.25,6.51,2.52,9.67,3.09C66.26,65,65,61.75,65,59.52ZM47.31,54.8a2,2,0,1,1,2-2A2,2,0,0,1,47.31,54.8Zm6,0a2,2,0,1,1,2-2A2,2,0,0,1,53.27,54.8Zm5.89,0a2,2,0,1,1,2-2A2,2,0,0,1,59.15,54.8Z"/></g></g></svg>