<?xml version="1.0" encoding="utf-8"?>
<!-- Generator: Adobe Illustrator 26.3.1, SVG Export Plug-In . SVG Version: 6.00 Build 0)  -->
<svg version="1.1" id="Layer_1" xmlns="http://www.w3.org/2000/svg" xmlns:xlink="http://www.w3.org/1999/xlink" x="0px" y="0px"
	 viewBox="0 0 510.2 210.4" style="enable-background:new 0 0 510.2 210.4;" xml:space="preserve">
<style type="text/css">
	.st0{clip-path:url(#SVGID_00000118356964407485294620000014279360360075184544_);}
	.st1{fill:#FFFFFF;}
</style>
<g>
	<defs>
		<rect id="SVGID_1_" width="510.2" height="254.4"/>
	</defs>
	<clipPath id="SVGID_00000145743970593078581150000004533532281316427162_">
		<use xlink:href="#SVGID_1_"  style="overflow:visible;"/>
	</clipPath>
	<g style="clip-path:url(#SVGID_00000145743970593078581150000004533532281316427162_);">
		<polygon class="st1" points="133.5,59.5 146.6,59.5 140.1,41.2 		"/>
		<path class="st1" d="M247.3,39.2c-8.1,0-14.7,7-14.7,15.4c0,8.4,6.6,15.3,14.7,15.3c8.1,0,14.7-6.9,14.7-15.3
			C262,46.2,255.4,39.2,247.3,39.2z"/>
		<path class="st1" d="M97.2,39.2h-6.1v13.5h6.1c3.3,0,7.1-1.6,7.1-6.7C104.3,40.8,100.5,39.2,97.2,39.2z"/>
		<path class="st1" d="M487.9,0H22.4C8.9,0,0.1,8.8,0.1,22.3v59.2c0,13.5,8.8,22.3,22.3,22.3h465.5c13.5,0,22.3-8.8,22.3-22.3V22.3
			C510.2,8.8,501.4,0,487.9,0z M76.8,39.5H63.8V78h-5.6c-2.5,0-3.6-1.1-3.6-3.6V39.5h-9.4c-2.5,0-3.6-1.1-3.6-3.6v-4.8h35.1V39.5z
			 M109.1,78c-2.2,0-3.5-0.7-4.5-2.7l-7.5-14.6h-6V78h-5.2c-2.5,0-3.6-1.1-3.6-3.6V31.2H98c8.9,0,15.3,5.7,15.3,14.9
			c0,6-3.3,10.7-7.9,12.9l10.7,19H109.1z M156.4,78c-2.2,0-3.4-1-4.2-3.2l-2.6-7.1h-19L126.9,78h-9.2l17.9-46.8h8.9l18,46.8H156.4z
			 M215.1,78c-2.2,0-3.9-1-4.2-3.4l-3.8-28.2l-10.5,27.7h-4.2c-2.3,0-3.6-1.1-4.5-3.4l-9.5-24.9L174,78h-8.8l7.3-46.8h8.2L192.8,63
			L205,31.2h8.2l7.3,46.8H215.1z M247.1,78.8c-13.3,0-24-10.9-24-24.2c0-13.5,10.9-24.3,24.3-24.3c13.3,0,24.1,10.9,24.1,24.2
			C271.5,68,260.5,78.8,247.1,78.8z M316.9,78h-5c-2.4,0-4-0.9-5.6-3.3L286,45.5V78H281c-2.5,0-3.6-1.1-3.6-3.6V31.2h8.3l22.6,33.1
			V31.2h8.5V78z M357.5,39.5h-12.9V78h-5.6c-2.5,0-3.6-1.1-3.6-3.6V39.5H326c-2.5,0-3.6-1.1-3.6-3.6v-4.8h35.1V39.5z M372.7,78h-5.6
			c-2.5,0-3.6-1.1-3.6-3.6V31.2h9.2V78z M421,78h-5c-2.4,0-4-0.9-5.6-3.3l-20.3-29.3V78h-4.9c-2.5,0-3.6-1.1-3.6-3.6V31.2h8.3
			l22.6,33.1V31.2h8.5V78z M464.6,78c-2.1,0-3.4-1-4.2-3.2l-2.6-7.1h-19L435.2,78H426l17.9-46.8h8.9l18,46.8H464.6z"/>
		<polygon class="st1" points="441.7,59.5 454.9,59.5 448.3,41.2 		"/>
	</g>
	<g style="clip-path:url(#SVGID_00000145743970593078581150000004533532281316427162_);">
		<path class="st1" d="M285.2,140.6c0-4.1-1.2-7.1-3.3-9.2c-2.5-2.4-6.3-3.5-11.1-3.5h-14.5l-1.1,6l-4.5,23.9h15.6
			c5.5,0,9.9-1.6,13.1-4.2C283.2,150.5,285.2,145.9,285.2,140.6z"/>
		<path class="st1" d="M365.9,140c-0.1-3-0.9-5.3-2.2-7.2c0-0.1-0.1-0.1-0.1-0.2c-0.1-0.1-0.1-0.1-0.2-0.2c-1.2-1.5-2.7-2.5-4.7-3.3
			c-0.7-0.3-1.4-0.5-2.2-0.6c-1.1-0.2-2.2-0.4-3.5-0.5c-0.5,0-1.1,0-1.7,0h-15.5l-5.3,28.9h16.4C359.1,156.9,366.2,149.5,365.9,140z
			"/>
		<path class="st1" d="M22.3,114.8C8.8,114.8,0,123.7,0,137.2v50.7c0,13.5,8.8,22.3,22.3,22.3h199.4l18-95.4H22.3z"/>
		<path class="st1" d="M411.2,189c3.1,5.5,8.3,9,16.1,9c6.1,0,11.2-2,15.5-5.7c6.2-5.4,10.5-14.4,12.8-25.9
			c3.8-18.5,0.9-37-14.9-39.2c-1.1-0.1-2.2-0.2-3.3-0.2c-2.8,0-5.4,0.4-7.8,1.3c-10.5,3.6-17.3,14.7-20.5,30.4
			c-0.2,0.8-0.3,1.6-0.4,2.4C406.9,171.7,407.3,182,411.2,189z"/>
		<path class="st1" d="M388.8,175.1c0-0.6,0-1.2,0-1.8c0-4.3,0.3-8.6,1-12.9c2.3-15.5,8.4-29,18.1-38.3c3-2.8,6.3-5.3,9.9-7.3h-46.8
			c2.2,1.1,4.3,2.5,6.1,4.1c5,4.5,8.1,10.9,8.1,19.3c0,10.8-4.4,19.4-11.4,25.2c-4.2,3.5-9.3,5.9-14.9,7.3c3.6,2.6,6.6,7.7,9.9,16.4
			l8.8,23.1h28.8c-1.5-0.9-2.9-1.9-4.2-3C392.9,199.7,389.1,187.8,388.8,175.1z"/>
		<path class="st1" d="M487.9,114.8h-29.3c16.4,9.7,19.4,30.3,16.5,49.8c-2.2,15.3-8.2,28.6-17.5,37.8c-3.1,3.1-6.6,5.7-10.4,7.8
			h40.8c13.5,0,22.3-8.8,22.3-22.3v-50.7C510.2,123.7,501.4,114.8,487.9,114.8z"/>
		<path class="st1" d="M349.9,189.4c-0.4-1.2-0.8-2.4-1.2-3.5c0,0,0,0,0,0c0,0,0,0,0,0c-3.3-8.8-6.1-12.2-10.8-13.1
			c-0.9-0.2-1.9-0.2-3-0.2h-7.2l-7.1,37.7h36.4l-5.3-15.8L349.9,189.4z"/>
		<path class="st1" d="M290.5,114.8c8.3,4.4,13.7,12.6,13.7,24.6c0,21.8-16.6,35.1-36.5,35.1h-20.2l-6.8,35.7h60.8l18-95.4H290.5z"
			/>
	</g>
</g>
</svg>
