<svg xmlns="http://www.w3.org/2000/svg" viewBox="0 0 41.51 42"><defs><style>.cls-1{fill:#faefc0;}</style></defs><title>Ativo 229</title><g id="Camada_2" data-name="Camada 2"><g id="Layer_1" data-name="Layer 1"><path class="cls-1" d="M39.26,5.75,37.75,7.26,34.5,4,36,2.49a.66.66,0,0,1,.93,0l2.33,2.33A.66.66,0,0,1,39.26,5.75ZM35.83,7.32l.93.93-6.51,6.51-6.51,6.51-4.32,1.07L20.48,18,27,11.51,33.51,5l.93.93-.93.93L31.65,8.72l-3.72,3.72-6.29,6.29,1.4,1.4,6.29-6.29L33,10.11,34.9,8.25Zm5.51,24.74-.05-.16a1.16,1.16,0,0,0-.1-.23A17.72,17.72,0,0,0,37.83,27a4.43,4.43,0,0,0-3.33-1.28,6.67,6.67,0,0,1-5.39-2.06l-3-3.05-.79.79,3,3a7.83,7.83,0,0,0,6.25,2.39,3.35,3.35,0,0,1,2.51,1,16.88,16.88,0,0,1,3.14,4.39l.06.18c.17.52.14.59,0,.68s-.14.09-.57-.2l-.16-.1c-.89-.56-1.8-1.17-2.71-1.81a2,2,0,0,0-2.49,0,7.74,7.74,0,0,0-1.72,1.64,7.35,7.35,0,0,0-.74,1.49c-.1.24-.2.49-.31.72A2.42,2.42,0,0,0,32.43,38c.63.48,1.29.91,1.93,1.33l.76.5.4.25a5.23,5.23,0,0,1,.6.4l.07.06-.06,0a6.69,6.69,0,0,1-1.66.32c-2.08.12-4.25,0-6-1.54A3.93,3.93,0,0,1,27,35.93,14.16,14.16,0,0,0,26.91,33a6.66,6.66,0,0,0-2-3.94l-1.94-1.9q-4.48-4.4-9-8.79a7,7,0,0,0-5-2l-.66,0c-2.14.17-3.74-.69-5.2-2.8-.55-.8-1.07-1.64-1.58-2.45l-.15-.24a1.55,1.55,0,0,1-.24-.5v-.08a4.11,4.11,0,0,1,0-.69,1.62,1.62,0,0,1,.61.16,13.58,13.58,0,0,1,1.46.91l.6.4.34.23.25.17c1.65,1.12,2.79,1,4.18-.38a8.81,8.81,0,0,0,2.13-4.28,2.12,2.12,0,0,0-.78-2.15C9.29,4.12,8.58,3.58,7.69,3c-.31-.21-.62-.4-.93-.58s-.66-.39-1-.6a1.21,1.21,0,0,1-.24-.25.83.83,0,0,1,.28-.14A9.59,9.59,0,0,1,8,1.12a15.54,15.54,0,0,1,3.21.29c2.94.68,4.37,2.81,4.23,6.34a8.48,8.48,0,0,0,2.75,6.54l2.28,2.25.79-.79c-.76-.75-1.41-1.5-2.18-2.26a7.7,7.7,0,0,1-2.31-5.67h0c0-4.09-1.71-6.68-5.2-7.49A17.21,17.21,0,0,0,8.05,0,10.93,10.93,0,0,0,5.62.31a1.62,1.62,0,0,0-1.21,1c-.12.57.43,1.14.74,1.36s.69.46,1,.66.59.35.86.53C7.91,4.48,8.59,5,9.21,5.52a1,1,0,0,1,.41,1A7.78,7.78,0,0,1,7.78,10.3c-1,1-1.53,1.07-2.75.24l-.24-.17-.36-.25-.58-.39a14.59,14.59,0,0,0-1.58-1C1.94,8.59,1,8.25.42,8.69S0,9.75,0,10.31v.07a2.19,2.19,0,0,0,.4,1.06l.15.24c.51.83,1,1.68,1.61,2.5a6.59,6.59,0,0,0,6.21,3.28,6,6,0,0,1,4.81,1.7q4.49,4.39,9,8.79l1.94,1.9a5.57,5.57,0,0,1,1.7,3.29,13.09,13.09,0,0,1,.11,2.7,5,5,0,0,0,1.86,4.28A7.81,7.81,0,0,0,33.35,42c.4,0,.8,0,1.19,0a7.85,7.85,0,0,0,1.94-.37c.65-.21.85-.58.9-.86a1.2,1.2,0,0,0-.55-1.16,6.1,6.1,0,0,0-.73-.5l-.36-.22L35,38.35c-.62-.41-1.27-.83-1.86-1.28a1.33,1.33,0,0,1-.48-1.81c.12-.26.23-.52.34-.78a6.41,6.41,0,0,1,.62-1.27,6.82,6.82,0,0,1,1.48-1.39c.24-.18.58-.34,1.16.07.93.65,1.86,1.27,2.76,1.84l.13.09A1.49,1.49,0,0,0,41,34,1.57,1.57,0,0,0,41.34,32.06Z"/></g></g></svg>