<?xml version="1.0" encoding="utf-8"?>
<!-- Generator: Adobe Illustrator 26.3.1, SVG Export Plug-In . SVG Version: 6.00 Build 0)  -->
<svg version="1.1" id="Layer_1" xmlns="http://www.w3.org/2000/svg" xmlns:xlink="http://www.w3.org/1999/xlink" x="0px" y="0px"
	 viewBox="0 0 510.2 210.4" style="enable-background:new 0 0 510.2 210.4;" xml:space="preserve">
<style type="text/css">
	.st0{clip-path:url(#SVGID_00000080203739983610467280000004469068036116446907_);fill:#005399;}
	.st1{clip-path:url(#SVGID_00000080203739983610467280000004469068036116446907_);fill:#FFFFFF;}
	.st2{clip-path:url(#SVGID_00000080203739983610467280000004469068036116446907_);fill:#EF7F2C;}
</style>
<g>
	<defs>
		<rect id="SVGID_1_" width="510.2" height="254.4"/>
	</defs>
	<clipPath id="SVGID_00000026856947822906109380000000182820775550503344_">
		<use xlink:href="#SVGID_1_"  style="overflow:visible;"/>
	</clipPath>
	<path style="clip-path:url(#SVGID_00000026856947822906109380000000182820775550503344_);fill:#005399;" d="M487.9,0
		c13.5,0,22.3,8.8,22.3,22.3v59.2c0,13.5-8.8,22.3-22.3,22.3H22.4C8.9,103.8,0.1,95,0.1,81.5V22.3C0.1,8.8,8.9,0,22.4,0H487.9z"/>
	<path style="clip-path:url(#SVGID_00000026856947822906109380000000182820775550503344_);fill:#FFFFFF;" d="M196.6,74.1l10.5-27.7
		l3.8,28.2c0.3,2.5,2.1,3.4,4.2,3.4h5.4l-7.3-46.8H205L192.8,63l-12.1-31.8h-8.2L165.2,78h8.8l4.2-32.1l9.5,24.9
		c0.9,2.3,2.3,3.4,4.5,3.4H196.6z"/>
	<path style="clip-path:url(#SVGID_00000026856947822906109380000000182820775550503344_);fill:#FFFFFF;" d="M381.6,31.2v43.2
		c0,2.5,1.1,3.6,3.6,3.6h4.9V45.5l20.3,29.3c1.6,2.3,3.2,3.3,5.6,3.3h5V31.2h-8.5v33.1l-22.6-33.1H381.6z"/>
	<path style="clip-path:url(#SVGID_00000026856947822906109380000000182820775550503344_);fill:#FFFFFF;" d="M277.5,31.2v43.2
		c0,2.5,1.1,3.6,3.6,3.6h4.9V45.5l20.3,29.3c1.6,2.3,3.2,3.3,5.6,3.3h5V31.2h-8.5v33.1l-22.6-33.1H277.5z"/>
	<path style="clip-path:url(#SVGID_00000026856947822906109380000000182820775550503344_);fill:#FFFFFF;" d="M247.4,30.3
		c-13.4,0-24.3,10.8-24.3,24.3c0,13.3,10.7,24.2,24,24.2c13.4,0,24.3-10.8,24.3-24.3C271.5,41.2,260.7,30.3,247.4,30.3 M247.3,69.9
		c-8.1,0-14.7-6.9-14.7-15.3c0-8.4,6.6-15.4,14.7-15.4c8.1,0,14.7,7,14.7,15.4C262,63,255.4,69.9,247.3,69.9"/>
	<path style="clip-path:url(#SVGID_00000026856947822906109380000000182820775550503344_);fill:#FFFFFF;" d="M335.4,39.5v34.9
		c0,2.5,1.1,3.6,3.6,3.6h5.6V39.5h12.9v-8.4h-35.1V36c0,2.5,1.1,3.6,3.6,3.6H335.4z"/>
	<path style="clip-path:url(#SVGID_00000026856947822906109380000000182820775550503344_);fill:#FFFFFF;" d="M54.6,39.5v34.9
		c0,2.5,1.1,3.6,3.6,3.6h5.6V39.5h12.9v-8.4H41.7V36c0,2.5,1.1,3.6,3.6,3.6H54.6z"/>
	<path style="clip-path:url(#SVGID_00000026856947822906109380000000182820775550503344_);fill:#FFFFFF;" d="M372.7,31.2h-9.2v43.2
		c0,2.5,1.1,3.6,3.6,3.6h5.6V31.2z"/>
	<path style="clip-path:url(#SVGID_00000026856947822906109380000000182820775550503344_);fill:#FFFFFF;" d="M105.4,59
		c4.7-2.3,7.9-6.9,7.9-12.9c0-9.2-6.4-14.9-15.3-14.9H82.3v43.2c0,2.5,1.1,3.6,3.6,3.6h5.2V60.7h6l7.5,14.6c1,1.9,2.3,2.7,4.5,2.7h7
		L105.4,59z M97.2,52.7h-6.1V39.2h6.1c3.3,0,7.1,1.6,7.1,6.8C104.3,51.2,100.5,52.7,97.2,52.7"/>
	<path style="clip-path:url(#SVGID_00000026856947822906109380000000182820775550503344_);fill:#FFFFFF;" d="M452.8,31.2h-8.9
		L426,78h9.2l3.6-10.3h19l2.6,7.1c0.8,2.2,2.1,3.2,4.2,3.2h6.3L452.8,31.2z M441.7,59.5l6.6-18.3l6.6,18.3H441.7z"/>
	<path style="clip-path:url(#SVGID_00000026856947822906109380000000182820775550503344_);fill:#FFFFFF;" d="M144.6,31.2h-8.9
		L117.8,78h9.2l3.6-10.3h19l2.6,7.1c0.8,2.2,2.1,3.2,4.2,3.2h6.3L144.6,31.2z M133.5,59.5l6.6-18.3l6.6,18.3H133.5z"/>
	<path style="clip-path:url(#SVGID_00000026856947822906109380000000182820775550503344_);fill:#EF7F2C;" d="M239.7,114.8l-18,95.4
		H22.3C8.8,210.2,0,201.4,0,187.9v-50.7c0-13.5,8.8-22.3,22.3-22.3H239.7z M475.1,164.7c2.9-19.5-0.1-40.1-16.5-49.8h29.3
		c13.5,0,22.3,8.8,22.3,22.3v50.7c0,13.5-8.8,22.3-22.3,22.3h-40.8C462.5,201.9,472.1,185.1,475.1,164.7 M304.2,139.5
		c0-12-5.4-20.2-13.7-24.6h29l-18,95.4h-60.8l6.8-35.7h20.2C287.6,174.5,304.2,161.3,304.2,139.5 M427.4,198
		c-18.7,0-22.3-19.6-18.2-39.4c4-19.4,13.3-31.7,28.3-31.7c18.7,0,22.3,19.7,18.2,39.4C451.7,185.8,442.3,198,427.4,198
		 M389.7,160.4c-2.9,19.5,0.3,40.2,16.5,49.8h-28.8l-8.8-23.1c-3.3-8.7-6.2-13.8-9.9-16.4c15.1-3.5,26.3-15.2,26.3-32.5
		c0-11.4-5.6-19.2-14.2-23.4h46.8C402.2,123.2,392.7,140.2,389.7,160.4 M334.8,172.5c7.3,0,10.5,3.4,15.1,16.9l7,20.8h-36.4
		l7.1-37.7H334.8z M270.8,128c9,0,14.4,3.9,14.4,12.7c0,9.7-6.9,17.2-19,17.2h-15.6l5.6-29.9H270.8z M351.4,128
		c9.2,0,14.2,3.8,14.5,12c0.3,9.6-6.8,16.9-18.8,16.9h-16.4l5.3-28.9H351.4z"/>
	<path style="clip-path:url(#SVGID_00000026856947822906109380000000182820775550503344_);fill:#FFFFFF;" d="M267.7,174.5
		c19.9,0,36.5-13.2,36.5-35.1c0-12-5.4-20.2-13.7-24.6h-50.8l-18,95.4h19l6.8-35.7H267.7z M256.3,128h14.5c9,0,14.4,3.9,14.4,12.7
		c0,9.7-6.9,17.2-19,17.2h-15.6L256.3,128z"/>
	<path style="clip-path:url(#SVGID_00000026856947822906109380000000182820775550503344_);fill:#FFFFFF;" d="M358.7,170.8
		c15.1-3.5,26.3-15.2,26.3-32.5c0-11.4-5.6-19.2-14.2-23.4h-51.4l-18,95.4h19l7.1-37.7h7.2c7.3,0,10.5,3.4,15.1,16.9l7,20.8h20.5
		l-8.8-23.1C365.3,178.5,362.4,173.4,358.7,170.8 M347.1,156.9h-16.4l5.3-28.9h15.5c9.2,0,14.2,3.8,14.5,12
		C366.2,149.5,359.1,156.9,347.1,156.9"/>
	<path style="clip-path:url(#SVGID_00000026856947822906109380000000182820775550503344_);fill:#FFFFFF;" d="M475.1,164.7
		c2.9-19.5-0.1-40.1-16.5-49.8h-40.9c-15.5,8.4-25,25.3-28,45.6c-2.9,19.5,0.3,40.2,16.5,49.8h40.9
		C462.5,201.9,472.1,185.1,475.1,164.7 M455.7,166.4c-4,19.4-13.4,31.6-28.3,31.6c-18.7,0-22.3-19.6-18.2-39.4
		c4-19.4,13.3-31.7,28.3-31.7C456.1,127,459.8,146.7,455.7,166.4"/>
</g>
</svg>
