<svg xmlns="http://www.w3.org/2000/svg" viewBox="0 0 67 33.29"><defs><style>.cls-1{fill:#faefc0;}</style></defs><title>Ativo 237</title><g id="Camada_2" data-name="Camada 2"><g id="Layer_1" data-name="Layer 1"><path class="cls-1" d="M50.88,9.25a19.78,19.78,0,0,0-32.71,0,2,2,0,0,0,0,2.69,23.07,23.07,0,0,0,4.56,4.71A19.82,19.82,0,0,0,50.8,11.93,2,2,0,0,0,50.88,9.25Zm-3.67,2.33c-5.35,7.89-17.11,9-23.7,2-2.88-3.1-2.78-3.12.22-6.2S30.44,3,34.91,2.81A15.51,15.51,0,0,1,47.14,9.4,1.68,1.68,0,0,1,47.21,11.58ZM34.64,3.9a4.71,4.71,0,0,1,2.09.34c.58.26,1.54.29,1.12,1.36-.33.84-.89,1-1.8.71a4.35,4.35,0,0,0-4.92,1.21,4.39,4.39,0,0,0-.71,4.9,4.48,4.48,0,0,0,5.21,2.53A4.38,4.38,0,0,0,39,10.7a9.47,9.47,0,0,0-.19-1.63c-.16-.85.35-1.21,1-1.39s1,.39,1.09.93a6.64,6.64,0,0,1-1.73,6.76,6.43,6.43,0,0,1-6.95,1.45,6.12,6.12,0,0,1-4.31-5.28A6.52,6.52,0,0,1,34.64,3.9Zm.84,5.85L36,9.61c.59-.17,1.14-1,1.75-.45s.43,1.4.31,2.12a3.69,3.69,0,0,1-4.65,2.82A3.72,3.72,0,1,1,35.7,7c.69.25.81.62.44,1.25C35.88,8.71,35.37,9.05,35.48,9.76ZM67,33.29H0V20.12L12.58,0l.85.53L1,20.41V32.29H66V20.41L53.58.53,54.42,0,67,20.12Z"/></g></g></svg>