<svg xmlns="http://www.w3.org/2000/svg" viewBox="0 0 56 42">
  <defs>
    <style>
      .cls-1 {
        fill: #faefc0;
      }
    </style>
  </defs>
  <title>Ativo 194</title>
  <g id="Camada_2" data-name="Camada 2">
    <g id="Layer_1" data-name="Layer 1">
      <path id="Camera_Icon" data-name="Camera Icon" class="cls-1" d="M50,7H42.54A3,3,0,0,1,40.1,5.74L37.57,1a2,2,0,0,0-1.76-1H20.19a2,2,0,0,0-1.76,1L15.9,5.74A3,3,0,0,1,13.46,7H6a6,6,0,0,0-6,6V36a6,6,0,0,0,6,6H50a6,6,0,0,0,6-6V13A6,6,0,0,0,50,7Zm4,29a4,4,0,0,1-4,4H6a4,4,0,0,1-4-4V13A4,4,0,0,1,6,9h7.46a5,5,0,0,0,4.07-2.09l.07-.1.06-.11L20.19,2H35.81l2.54,4.69.06.11.07.1A5,5,0,0,0,42.54,9H50a4,4,0,0,1,4,4ZM28,11A12,12,0,1,0,40,23,12,12,0,0,0,28,11Zm0,22.25A10.25,10.25,0,1,1,38.25,23,10.26,10.26,0,0,1,28,33.25ZM49,15a2,2,0,1,1-2-2A2,2,0,0,1,49,15Z"/>
    </g>
  </g>
</svg>
