<svg xmlns="http://www.w3.org/2000/svg" viewBox="0 0 40.3 50.72">
  <defs>
    <style>
      .cls-1 {
        fill: #faefc0;
      }
    </style>
  </defs>
  <title>Ativo 181</title>
  <g id="Camada_2" data-name="Camada 2">
    <g id="Layer_1" data-name="Layer 1">
      <path class="cls-1" d="M35,10.31v3.2q0,17.68,0,35.35c0,.13,0,.26,0,.39a1.47,1.47,0,0,1-1.53,1.47H6.68A6.43,6.43,0,0,1,2.9,49.53,6.39,6.39,0,0,1,0,44.11Q0,25.24,0,6.38A6.15,6.15,0,0,1,6.34,0c9.39,0,18.79,0,28.18,0l.41,0V2.74H6.37A3.35,3.35,0,0,0,2.94,5.08c-.69,2.32.17,4.5,2.38,5.09a6,6,0,0,0,1.53.13H35ZM3,12.1c0,.42,0,.69,0,1q0,15.5,0,31a3.62,3.62,0,0,0,3.69,3.7H32V13H7.8C6.16,13,4.52,13.1,3,12.1ZM36.39,46.84H40.3V4.17H7.06A2.46,2.46,0,0,0,4.63,5.73,2.4,2.4,0,0,0,7.06,8.91H36.39ZM27.32,29.6c0,1.17-.09,1.33-1.28,1.49a1.78,1.78,0,0,0-1.51,1.24,2.16,2.16,0,0,0,.24,2.61c.47.56.39.84-.12,1.39-1.11,1.2-1.15,1.22-2.49.3a1.19,1.19,0,0,0-1.42-.13.72.72,0,0,1-.2.08,2.06,2.06,0,0,0-1.79,2c-.05.69-.34.85-1,.86-2,0-1.72-.16-2-1.55a1.26,1.26,0,0,0-.95-1.13l-.15-.06a2,2,0,0,0-2.68.19.83.83,0,0,1-1.27-.08c-1.47-1.45-1.25-1.35-.35-2.67a1.14,1.14,0,0,0,.12-1.28.45.45,0,0,1,0-.1A2.07,2.07,0,0,0,8.34,30.9c-.58,0-.82-.41-.82-1,0,0,0-.07,0-.11,0-1.67,0-1.72,1.59-2a1.13,1.13,0,0,0,1-.84l0-.05a2,2,0,0,0-.17-2.8.81.81,0,0,1,.1-1.23c1.45-1.5,1.35-1.32,2.7-.39a1.08,1.08,0,0,0,1.27.11l.05,0a2.09,2.09,0,0,0,1.84-2.08c0-.7.32-.83,1-.86,1.7-.07,1.79,0,2.07,1.64a1.24,1.24,0,0,0,.79,1,2.31,2.31,0,0,0,3-.23.74.74,0,0,1,1.13.08l0,0c1.54,1.42,1.29,1.33.37,2.69a1.08,1.08,0,0,0-.1,1.27.6.6,0,0,1,.07.15,2.17,2.17,0,0,0,2.11,1.84C27.25,28.18,27.33,28.44,27.32,29.6Zm-14.67-.08A4.76,4.76,0,1,0,17.5,24.8,4.74,4.74,0,0,0,12.65,29.52Z"/>
    </g>
  </g>
</svg>
