<svg xmlns="http://www.w3.org/2000/svg" viewBox="0 0 96 95.96"><defs><style>.cls-1{fill:#58595b;}</style></defs><title>user msg 96x96</title><g id="Camada_2" data-name="Camada 2"><g id="elements"><path class="cls-1" d="M48.05,0A48,48,0,1,1,0,48,48,48,0,0,1,48.05,0ZM76,82a29.9,29.9,0,0,0-3.09-1.24c-3-.83-6-1.6-8.94-2.35-2.49-.62-4.17-2.07-4.57-4.66-.33-2.16-.45-4.34-.68-6.52a1.94,1.94,0,0,1,.92-2,3.75,3.75,0,0,0,1.3-1.7A42,42,0,0,0,62,59.42c.35-1.36.32-3,1-4.06,2-2.94,2.8-6.24,3.68-9.55a6.54,6.54,0,0,0-.42-5,4.68,4.68,0,0,1-.42-3.33,33.62,33.62,0,0,0,.9-9.29c-.26-4.88-2.15-8.78-6.52-11.25a22,22,0,0,0-3.38-1.59c-3.3-1.18-6.65-2.3-10.24-1.89-6.83.78-12.07,4.26-16.05,9.72a7.78,7.78,0,0,0-1.41,3.09c-.76,4.31-.16,8.58.77,12.79a3.84,3.84,0,0,1-.27,3.07,5.77,5.77,0,0,0-.7,4,14.75,14.75,0,0,0,2.52,6.44,10.13,10.13,0,0,1,2.27,6.61,3.52,3.52,0,0,0,.1.83c.41,2.13.87,4.27,2.71,5.68a1.76,1.76,0,0,1,.81,1.74q-.37,3.88-.71,7.76a3.32,3.32,0,0,1-2.9,3.19c-1.49.33-3,.59-4.45,1-2.92.88-5.82,1.87-8.89,2.87C36.29,95.55,60.7,95.24,76,82Zm-3.09-1.24c-3-.83-6-1.6-8.94-2.35-2.49-.62-4.17-2.07-4.57-4.66-.33-2.16-.45-4.34-.68-6.52a1.94,1.94,0,0,1,.92-2,3.75,3.75,0,0,0,1.3-1.7A42,42,0,0,0,62,59.42c.35-1.36.32-3,1-4.06,2-2.94,2.8-6.24,3.68-9.55a6.54,6.54,0,0,0-.42-5,4.68,4.68,0,0,1-.42-3.33,33.62,33.62,0,0,0,.9-9.29c-.26-4.88-2.15-8.78-6.52-11.25a22,22,0,0,0-3.38-1.59c-3.3-1.18-6.65-2.3-10.24-1.89-6.83.78-12.07,4.26-16.05,9.72a7.78,7.78,0,0,0-1.41,3.09c-.76,4.31-.16,8.58.77,12.79a3.84,3.84,0,0,1-.27,3.07,5.77,5.77,0,0,0-.7,4,14.75,14.75,0,0,0,2.52,6.44,10.13,10.13,0,0,1,2.27,6.61,3.52,3.52,0,0,0,.1.83c.41,2.13.87,4.27,2.71,5.68a1.76,1.76,0,0,1,.81,1.74q-.37,3.88-.71,7.76a3.32,3.32,0,0,1-2.9,3.19c-1.49.33-3,.59-4.45,1-2.92.88-5.82,1.87-8.89,2.87C36.29,95.55,60.7,95.24,76,82A29.9,29.9,0,0,0,72.88,80.75Z"/></g></g></svg>