<svg xmlns="http://www.w3.org/2000/svg" viewBox="0 0 96 95.96"><defs><style>.cls-1{fill:#58595b;}</style></defs><title>AtivoElementos3-22</title><g id="Camada_2" data-name="Camada 2"><g id="elements"><path class="cls-1" d="M48.05,0A48,48,0,1,0,96,48.15,48,48,0,0,0,48.05,0ZM20.48,82.33c3.07-1,6-2,8.89-2.87,1.46-.44,3-.7,4.45-1a3.32,3.32,0,0,0,2.9-3.19q.34-3.88.71-7.76a1.76,1.76,0,0,0-.81-1.74c-1.84-1.41-2.29-3.55-2.71-5.68a3.52,3.52,0,0,1-.1-.83,10.13,10.13,0,0,0-2.27-6.61A14.75,14.75,0,0,1,29,46.18a5.77,5.77,0,0,1,.7-4A3.84,3.84,0,0,0,30,39.1c-.93-4.21-1.53-8.48-.77-12.79a7.78,7.78,0,0,1,1.41-3.09c4-5.46,9.22-8.94,16.05-9.72,3.59-.41,6.93.71,10.24,1.89A22,22,0,0,1,60.32,17c4.37,2.46,6.26,6.37,6.52,11.25a33.62,33.62,0,0,1-.9,9.29,4.68,4.68,0,0,0,.42,3.33,6.54,6.54,0,0,1,.42,5c-.88,3.32-1.73,6.61-3.68,9.55-.73,1.1-.7,2.7-1,4.06a42,42,0,0,1-1.13,4.09,3.75,3.75,0,0,1-1.3,1.7,1.94,1.94,0,0,0-.92,2c.23,2.17.35,4.36.68,6.52.39,2.59,2.07,4,4.57,4.66,3,.75,6,1.52,8.94,2.35A29.9,29.9,0,0,1,76,82C60.7,95.24,36.29,95.55,20.48,82.33Z"/></g></g></svg>