<svg xmlns="http://www.w3.org/2000/svg" viewBox="0 0 60.5 56.83">
  <defs>
    <style>
      .cls-1 {
        fill: #faefc0;
      }
    </style>
  </defs>
  <title>Ativo 179</title>
  <g id="Camada_2" data-name="Camada 2">
    <g id="Layer_1" data-name="Layer 1">
      <path class="cls-1" d="M60.13,34.52,49.44,54.76a4.23,4.23,0,0,1-3.15,2.07H3.41A3.41,3.41,0,0,1,0,53.42V20.13a3.41,3.41,0,0,1,3.41-3.41H6.55v2.91H4.45a1.55,1.55,0,0,0-1.55,1.55V52.38a1.55,1.55,0,0,0,1.55,1.55H6.6l10.13-20.5a3.43,3.43,0,0,1,2.8-2.07H44.35V23.11a3.18,3.18,0,0,1,2.9,3.15v5.1H58.64C60,31.37,61.11,32.7,60.13,34.52ZM8.53,43.61c-.09-10.2,0-40.81,0-40.81A2.8,2.8,0,0,1,11.33,0H33.74a1.28,1.28,0,0,1,.94.41l7.25,7.87a1.29,1.29,0,0,1,.34.87V29.55H39.92V10.92a.58.58,0,0,0-.58-.58H33.79a1.18,1.18,0,0,1-1.18-1.17V2.94A.58.58,0,0,0,32,2.35H11.33a.45.45,0,0,0-.45.45V41l-1.8,3.64S8.54,44.64,8.53,43.61ZM35,8h3.49L35,4.19V8Zm1.27,4.74H14.57a1.45,1.45,0,0,0,0,2.89H36.24a1.45,1.45,0,1,0,0-2.89Zm1.45,9.87a1.45,1.45,0,0,0-1.45-1.45H14.57a1.45,1.45,0,1,0,0,2.89H36.24A1.45,1.45,0,0,0,37.68,22.6ZM13.13,31.08a1.45,1.45,0,0,0,1.45,1.45h.52a4.33,4.33,0,0,1,3.18-2.89h-3.7A1.45,1.45,0,0,0,13.13,31.08Z"/>
    </g>
  </g>
</svg>
