<?xml version="1.0" encoding="utf-8"?>
<!-- Generator: Adobe Illustrator 24.3.0, SVG Export Plug-In . SVG Version: 6.00 Build 0)  -->
<svg version="1.1" id="Layer_1" xmlns="http://www.w3.org/2000/svg" xmlns:xlink="http://www.w3.org/1999/xlink" x="0px" y="0px"
	 viewBox="0 0 136 136" style="enable-background:new 0 0 136 136;" xml:space="preserve">
<style type="text/css">
	.st0{fill:#FAEFC0;}
	.st1{fill:none;stroke:#FAEFC0;stroke-width:1.5;stroke-miterlimit:10;}
</style>
<circle class="st0" cx="67.5" cy="94.7" r="7.8"/>
<path class="st0" d="M83.2,85.5c-1,0-2-0.4-2.8-1.2c-7.1-7.1-18.7-7.1-25.8,0c-1.5,1.5-4,1.5-5.5,0c-1.5-1.5-1.5-4,0-5.5l0,0
	c10.1-10.2,26.6-10.2,36.8-0.1c0,0,0,0,0.1,0.1c1.5,1.5,1.5,4,0,5.5C85.2,85.1,84.2,85.5,83.2,85.5z"/>
<path class="st0" d="M40.8,74.5c-2.2,0-3.9-1.8-3.9-3.9c0-1,0.4-2,1.1-2.8c16.3-16.3,42.6-16.3,58.9,0c1.5,1.6,1.4,4.1-0.2,5.5
	c-1.5,1.4-3.8,1.4-5.3,0c-13.2-13.2-34.6-13.2-47.9,0C42.9,74.1,41.9,74.5,40.8,74.5z"/>
<path class="st1" d="M29.8,63.4c-2.2,0-3.9-1.7-3.9-3.9c0-1,0.4-2,1.1-2.8c22.4-22.3,58.6-22.3,81,0c1.5,1.6,1.4,4.1-0.2,5.5
	c-1.5,1.4-3.8,1.4-5.3,0c-19.3-19.3-50.7-19.3-70,0C31.8,63,30.8,63.4,29.8,63.4z"/>
</svg>
