<svg id="Layer_1" data-name="Layer 1" xmlns="http://www.w3.org/2000/svg" viewBox="0 0 136 136"><defs><style>.cls-1{stroke:#000;stroke-miterlimit:10;}</style></defs><circle class="cls-1" cx="67.53" cy="94.67" r="7.81" transform="translate(-16.44 14.22) rotate(-10.72)"/><path class="cls-1" d="M83.19,85.53a3.9,3.9,0,0,1-2.77-1.15,18.23,18.23,0,0,0-25.78,0,3.9,3.9,0,1,1-5.52-5.52,26,26,0,0,1,36.83,0,3.91,3.91,0,0,1,0,5.52A3.86,3.86,0,0,1,83.19,85.53Z"/><path class="cls-1" d="M40.83,74.48a3.91,3.91,0,0,1-2.76-6.67,41.71,41.71,0,0,1,58.93,0,3.91,3.91,0,0,1-5.53,5.52,33.9,33.9,0,0,0-47.88,0A3.86,3.86,0,0,1,40.83,74.48Z"/><path class="cls-1" d="M29.78,63.43A3.91,3.91,0,0,1,27,56.76a57.34,57.34,0,0,1,81,0,3.91,3.91,0,0,1-5.53,5.52,49.53,49.53,0,0,0-70,0A3.94,3.94,0,0,1,29.78,63.43Z"/><g id="Bloquear-5" data-name="Bloquear"><path d="M125.56,98.46H122v-10h0A13,13,0,0,0,96,88.5h0v10h-3.6A1.44,1.44,0,0,0,91,99.88v19.88a1.44,1.44,0,0,0,1.44,1.42h33.12a1.44,1.44,0,0,0,1.44-1.42V99.88A1.44,1.44,0,0,0,125.56,98.46Zm-24.48-10v0a7.92,7.92,0,0,1,15.84,0v9.92H101.08Zm10.63,24.91h-5.42l1.74-5a2.82,2.82,0,0,1-1.9-2.66,2.87,2.87,0,0,1,5.74,0,2.82,2.82,0,0,1-1.9,2.66Z"/></g></svg>